<svg width="14" height="14" viewBox="0 0 14 14" fill="none" xmlns="http://www.w3.org/2000/svg">
<path d="M5.25002 6.85425C5.05663 6.85425 4.87117 6.93107 4.73442 7.06782C4.59768 7.20456 4.52085 7.39003 4.52085 7.58342C4.52085 7.7768 4.59768 7.96227 4.73442 8.09901C4.87117 8.23576 5.05663 8.31258 5.25002 8.31258C5.34578 8.31258 5.44059 8.29372 5.52906 8.25708C5.61753 8.22043 5.69791 8.16672 5.76562 8.09901C5.83333 8.0313 5.88704 7.95092 5.92368 7.86246C5.96033 7.77399 5.97919 7.67917 5.97919 7.58342C5.97919 7.48766 5.96033 7.39284 5.92368 7.30438C5.88704 7.21591 5.83333 7.13553 5.76562 7.06782C5.69791 7.00011 5.61753 6.9464 5.52906 6.90975C5.44059 6.87311 5.34578 6.85425 5.25002 6.85425ZM8.75002 6.85425C8.55663 6.85425 8.37117 6.93107 8.23442 7.06782C8.09768 7.20456 8.02085 7.39003 8.02085 7.58342C8.02085 7.7768 8.09768 7.96227 8.23442 8.09901C8.37117 8.23576 8.55663 8.31258 8.75002 8.31258C8.94341 8.31258 9.12887 8.23576 9.26562 8.09901C9.40236 7.96227 9.47919 7.7768 9.47919 7.58342C9.47919 7.39003 9.40236 7.20456 9.26562 7.06782C9.12887 6.93107 8.94341 6.85425 8.75002 6.85425ZM7.00002 1.16675C6.23398 1.16675 5.47543 1.31763 4.7677 1.61078C4.05997 1.90394 3.41691 2.33362 2.87523 2.87529C1.78127 3.96925 1.16669 5.45299 1.16669 7.00008C1.16669 8.54718 1.78127 10.0309 2.87523 11.1249C3.41691 11.6665 4.05997 12.0962 4.7677 12.3894C5.47543 12.6825 6.23398 12.8334 7.00002 12.8334C8.54712 12.8334 10.0308 12.2188 11.1248 11.1249C12.2188 10.0309 12.8334 8.54718 12.8334 7.00008C12.8334 6.23404 12.6825 5.47549 12.3893 4.76776C12.0962 4.06003 11.6665 3.41697 11.1248 2.87529C10.5831 2.33362 9.94007 1.90394 9.23234 1.61078C8.52461 1.31763 7.76607 1.16675 7.00002 1.16675ZM7.00002 11.6667C4.42752 11.6667 2.33335 9.57258 2.33335 7.00008C2.33335 6.83092 2.33335 6.66175 2.36252 6.49842C3.73919 5.88592 4.83002 4.76008 5.40169 3.36591C6.45752 4.85925 8.19585 5.83342 10.1617 5.83342C10.6167 5.83342 11.0542 5.78091 11.4742 5.68175C11.5967 6.09591 11.6667 6.53925 11.6667 7.00008C11.6667 9.57258 9.57252 11.6667 7.00002 11.6667Z" fill="#0077FF"/>
</svg>
