<svg width="14" height="14" viewBox="0 0 14 14" fill="none" xmlns="http://www.w3.org/2000/svg">
<g clip-path="url(#clip0_72_508)">
<path d="M5.08795 2.10767C6.15822 1.3002 7.51079 1.30036 8.58112 2.10767H8.58209L12.084 4.75317L12.1212 4.78149L12.1534 4.81567C12.5839 5.27541 12.8081 5.92324 12.7774 6.48755C12.7617 6.77342 12.6769 7.08574 12.4669 7.33618C12.3729 7.44804 12.2599 7.53657 12.1348 7.60376V9.16626C12.1348 11.0055 10.6437 12.496 8.80475 12.4963H8.54889V11.3967H8.80475C10.0364 11.3964 11.0352 10.3978 11.0352 9.16626V7.38599C11.0136 7.32709 10.9991 7.26385 10.9991 7.19751C10.9992 7.13087 11.0134 7.06721 11.0352 7.00806V6.99927H11.0381C11.118 6.79408 11.3158 6.64705 11.5489 6.64673C11.5892 6.64668 11.6086 6.63997 11.6133 6.63794C11.6165 6.63646 11.6197 6.63429 11.6241 6.62915C11.6375 6.61283 11.6718 6.55401 11.6788 6.42798C11.6925 6.17408 11.5837 5.8344 11.3712 5.59302L7.91901 2.9856C7.28335 2.50611 6.5302 2.47637 5.87994 2.89575L5.75104 2.9856L2.29791 5.59302C2.08566 5.8344 1.97655 6.17429 1.9903 6.42798C1.99729 6.55438 2.03163 6.61303 2.04498 6.62915C2.04966 6.63471 2.05334 6.63643 2.0567 6.63794C2.06157 6.64004 2.08098 6.64669 2.12115 6.64673C2.42434 6.64719 2.67067 6.89429 2.67096 7.19751C2.6709 7.26373 2.65734 7.32719 2.6358 7.38599V9.16626C2.63585 10.3975 3.63464 11.3966 4.86627 11.3967H5.12115V12.4963H4.86627C3.02699 12.4962 1.53624 11.0049 1.53619 9.16626V7.60474C1.41061 7.53746 1.29744 7.44839 1.20319 7.33618C0.992965 7.0857 0.908353 6.77349 0.892639 6.48755C0.861947 5.92325 1.08622 5.27538 1.51666 4.81567L1.54889 4.78149L1.586 4.75317L5.08795 2.10767Z" fill="#0077FF"/>
<path d="M9.20976 3.33889V2.75509C9.20976 2.56877 9.28377 2.39007 9.41551 2.25831C9.54725 2.12655 9.72594 2.05252 9.91226 2.05249H10.4862C10.6725 2.05249 10.8512 2.12651 10.983 2.25828C11.1147 2.39004 11.1888 2.56875 11.1888 2.75509V4.62509M6.21596 8.38529H7.45396C7.81328 8.38529 8.15788 8.52801 8.41199 8.78206C8.66609 9.0361 8.80888 9.38067 8.80896 9.73999V11.9472H4.86096V9.73999C4.86104 9.38067 5.00384 9.0361 5.25794 8.78206C5.51204 8.52801 5.85665 8.38529 6.21596 8.38529Z" fill="#0077FF"/>
<path d="M9.20976 3.33889V2.75509C9.20976 2.56877 9.28377 2.39007 9.41551 2.25831C9.54725 2.12655 9.72594 2.05252 9.91226 2.05249H10.4862C10.6725 2.05249 10.8512 2.12651 10.983 2.25828C11.1147 2.39004 11.1888 2.56875 11.1888 2.75509V4.62509M6.21596 8.38529H7.45396C7.81328 8.38529 8.15788 8.52801 8.41199 8.78206C8.66609 9.0361 8.80888 9.38067 8.80896 9.73999V11.9472H4.86096V9.73999C4.86104 9.38067 5.00384 9.0361 5.25794 8.78206C5.51204 8.52801 5.85665 8.38529 6.21596 8.38529Z" stroke="#0077FF" stroke-width="1.1" stroke-miterlimit="10"/>
</g>
<defs>
<clipPath id="clip0_72_508">
<rect width="12" height="12" fill="white" transform="translate(0.835022 1)"/>
</clipPath>
</defs>
</svg>
