<svg width="12" height="12" viewBox="0 0 12 12" fill="none" xmlns="http://www.w3.org/2000/svg">
<path d="M6.00012 0C9.30012 0 12.0001 2.7 12.0001 6C12.0001 9.3 9.30012 12 6.00012 12H0.599731C0.419948 11.9999 0.299723 11.9402 0.17981 11.8203C-0.0600598 11.5804 -0.0597995 11.2205 0.17981 10.9805L1.38 9.78027C0.480005 8.70027 0.00012207 7.38 0.00012207 6C0.00012207 2.7 2.70012 0 6.00012 0ZM3.75012 5.25C3.42569 5.25 3.15154 5.45678 3.047 5.74512C3.03918 5.76444 3.03436 5.78502 3.02844 5.80566C3.02364 5.82352 3.01728 5.84101 3.01379 5.85938C3.01191 5.86902 3.0104 5.87879 3.00891 5.88867C3.0035 5.92502 3.00012 5.96214 3.00012 6C3.00012 6.03753 3.00359 6.0743 3.00891 6.11035C3.01038 6.12024 3.01192 6.13 3.01379 6.13965C3.01726 6.15802 3.02367 6.17549 3.02844 6.19336C3.03433 6.21402 3.03921 6.23456 3.047 6.25391C3.1513 6.54269 3.42536 6.75 3.75012 6.75C4.16434 6.75 4.50012 6.41421 4.50012 6C4.50012 5.58579 4.16434 5.25 3.75012 5.25ZM6.00012 5.25C5.58591 5.25 5.25012 5.58579 5.25012 6C5.25012 6.41421 5.58591 6.75 6.00012 6.75C6.41434 6.75 6.75012 6.41421 6.75012 6C6.75012 5.58579 6.41434 5.25 6.00012 5.25ZM8.25012 5.25C7.83591 5.25 7.50012 5.58579 7.50012 6C7.50012 6.41421 7.83591 6.75 8.25012 6.75C8.57476 6.75 8.84788 6.54253 8.95227 6.25391C8.96008 6.23453 8.96492 6.21405 8.97083 6.19336C8.97561 6.17547 8.982 6.15804 8.98547 6.13965C8.98735 6.12999 8.98888 6.12025 8.99036 6.11035C8.99569 6.07426 9.00012 6.03758 9.00012 6C9.00012 5.96209 8.99578 5.92507 8.99036 5.88867C8.98887 5.87878 8.98736 5.86903 8.98547 5.85938C8.98198 5.84099 8.97563 5.82355 8.97083 5.80566C8.96489 5.78499 8.96011 5.76447 8.95227 5.74512C8.84764 5.45695 8.57444 5.25 8.25012 5.25Z" fill="#9C9C9C"/>
</svg>
