<svg width="13" height="12" viewBox="0 0 13 12" fill="none" xmlns="http://www.w3.org/2000/svg">
<path d="M8.96094 0.814453C10.3057 0.566488 11.1622 1.05254 11.666 1.76367C12.1704 2.47577 12.3554 3.46977 12.1924 4.35352L12.1553 4.52832C11.8034 5.97912 10.7506 7.42297 9.55371 8.65527C8.37498 9.86881 7.13009 10.8019 6.5 11.2461C5.87085 10.8008 4.62957 9.86741 3.45215 8.65527C2.25501 7.42279 1.19976 5.97874 0.845703 4.52734C0.620399 3.60251 0.794555 2.52196 1.33203 1.7627C1.83513 1.05215 2.6909 0.566837 4.03516 0.814453V0.81543C4.4549 0.893477 4.89961 1.21943 5.28516 1.62402C5.46691 1.81477 5.6141 2.00067 5.71582 2.13867C5.76635 2.20723 5.80525 2.26283 5.83008 2.2998C5.84229 2.31799 5.85111 2.33158 5.85645 2.33984C5.85911 2.34398 5.8605 2.34732 5.86133 2.34863C5.99831 2.56874 6.23975 2.70231 6.49902 2.70215C6.72637 2.70191 6.93992 2.59874 7.08105 2.4248L7.13672 2.34668L7.13574 2.3457C7.13668 2.34422 7.1394 2.3423 7.1416 2.33887C7.14689 2.33063 7.15576 2.31708 7.16797 2.29883C7.19265 2.26192 7.23093 2.20618 7.28125 2.1377C7.38255 1.99982 7.52957 1.81364 7.71094 1.62305C8.09512 1.2194 8.53922 0.892728 8.96094 0.814453Z" stroke="#9C9C9C" stroke-width="1.5" stroke-linejoin="round"/>
</svg>
