<svg width="14" height="14" viewBox="0 0 14 14" fill="none" xmlns="http://www.w3.org/2000/svg">
<g clip-path="url(#clip0_26_369)">
<path d="M5.01807 1.36719C6.23437 0.449378 7.76665 0.449255 8.98291 1.36719L13.0688 4.45215L13.106 4.48047L13.1382 4.51562C13.6234 5.03406 13.876 5.76523 13.8413 6.39844C13.8236 6.7188 13.7293 7.06238 13.5005 7.33496C13.3865 7.47052 13.2476 7.5754 13.0913 7.65039V9.52832C13.0911 11.6234 11.3922 13.3211 9.29736 13.3213H8.99951V12.2217H9.29736C10.785 12.2215 11.9915 11.0156 11.9917 9.52832V7.43848C11.9656 7.3746 11.9508 7.30467 11.9507 7.23145C11.9507 7.15763 11.9653 7.08684 11.9917 7.02246V7H12.0024C12.0898 6.81165 12.2794 6.68066 12.5005 6.68066C12.6067 6.68055 12.6404 6.64872 12.6587 6.62695C12.6904 6.5889 12.7347 6.49968 12.7437 6.33887C12.7614 6.01649 12.6238 5.593 12.3569 5.29297L8.31982 2.24512C7.49574 1.62325 6.50426 1.62324 5.68018 2.24512L1.64209 5.29395C1.37572 5.59395 1.23964 6.01686 1.25732 6.33887C1.26633 6.50015 1.31054 6.58913 1.34229 6.62695C1.36068 6.64874 1.39418 6.68066 1.50049 6.68066C1.80397 6.68098 2.05029 6.92789 2.05029 7.23145C2.05018 7.30466 2.03535 7.37461 2.00928 7.43848V9.52832C2.00952 11.0153 3.21522 12.2215 4.70264 12.2217H4.99951V13.3213H4.70264C2.60758 13.3211 0.909906 11.6227 0.909668 9.52832V7.65137C0.752902 7.57642 0.613712 7.47077 0.499512 7.33496C0.27058 7.06237 0.17637 6.71882 0.158691 6.39844C0.12403 5.76515 0.376508 5.03403 0.861816 4.51562L0.894043 4.48047L0.932129 4.45215L5.01807 1.36719Z" fill="#8C8C8C"/>
</g>
<path d="M9.77056 2.72883V2.04773C9.77056 1.83035 9.8569 1.62187 10.0106 1.46815C10.1643 1.31443 10.3728 1.22806 10.5901 1.22803H11.2597C11.4771 1.22803 11.6856 1.31439 11.8393 1.46811C11.993 1.62184 12.0794 1.83033 12.0794 2.04773V4.22939M6.27779 8.6163H7.72213C8.14133 8.6163 8.54337 8.7828 8.83982 9.07919C9.13627 9.37557 9.30287 9.77758 9.30296 10.1968V12.7718H4.69696V10.1968C4.69705 9.77758 4.86365 9.37557 5.1601 9.07919C5.45655 8.7828 5.85859 8.6163 6.27779 8.6163Z" fill="#8C8C8C"/>
<path d="M9.77056 2.72883V2.04773C9.77056 1.83035 9.8569 1.62187 10.0106 1.46815C10.1643 1.31443 10.3728 1.22806 10.5901 1.22803H11.2597C11.4771 1.22803 11.6856 1.31439 11.8393 1.46811C11.993 1.62184 12.0794 1.83033 12.0794 2.04773V4.22939M6.27779 8.6163H7.72213C8.14133 8.6163 8.54337 8.7828 8.83982 9.07919C9.13627 9.37557 9.30287 9.77758 9.30296 10.1968V12.7718H4.69696V10.1968C4.69705 9.77758 4.86365 9.37557 5.1601 9.07919C5.45655 8.7828 5.85859 8.6163 6.27779 8.6163Z" stroke="#8C8C8C" stroke-width="1.1" stroke-miterlimit="10"/>
<defs>
<clipPath id="clip0_26_369">
<rect width="14" height="14" fill="white"/>
</clipPath>
</defs>
</svg>
