<svg width="14" height="14" viewBox="0 0 14 14" fill="none" xmlns="http://www.w3.org/2000/svg">
<g clip-path="url(#clip0_72_509)">
<path d="M5.08795 2.10767C6.1582 1.30023 7.51081 1.30039 8.58112 2.10767H8.58209L12.084 4.75317L12.1212 4.78149L12.1534 4.81567C12.5838 5.27534 12.808 5.92332 12.7774 6.48755C12.7616 6.77331 12.6768 7.08583 12.4669 7.33618C12.3729 7.44805 12.26 7.53755 12.1348 7.60474V9.16626C12.1347 11.0054 10.6436 12.496 8.80475 12.4963H8.54889V11.3967H8.80475C10.0364 11.3964 11.035 10.3976 11.0352 9.16626V7.38599C11.0137 7.32721 10.9992 7.2637 10.9991 7.19751C10.9992 7.13096 11.0134 7.06714 11.0352 7.00806V6.99927H11.0381C11.118 6.79422 11.3159 6.64705 11.5489 6.64673C11.5893 6.64668 11.6087 6.63997 11.6133 6.63794C11.6165 6.63646 11.6197 6.63421 11.6241 6.62915C11.6376 6.6127 11.6718 6.55359 11.6788 6.42798C11.6925 6.17413 11.5836 5.83432 11.3712 5.59302L7.91901 2.9856C7.28335 2.50614 6.53019 2.47638 5.87994 2.89575L5.75104 2.9856L2.29791 5.59302C2.08577 5.83432 1.97663 6.17435 1.9903 6.42798C1.99731 6.55401 2.03159 6.61293 2.04498 6.62915C2.04964 6.63465 2.05335 6.63644 2.0567 6.63794C2.06154 6.64003 2.08093 6.64669 2.12115 6.64673C2.42426 6.64719 2.67054 6.8944 2.67096 7.19751C2.67087 7.26355 2.65725 7.32733 2.6358 7.38599V9.16626C2.63598 10.3974 3.63472 11.3966 4.86627 11.3967H5.12115V12.4963H4.86627C3.02707 12.4962 1.53637 11.0048 1.53619 9.16626V7.60474C1.41064 7.53747 1.29743 7.44836 1.20319 7.33618C0.99307 7.08578 0.908384 6.7734 0.892639 6.48755C0.862022 5.92333 1.08633 5.27531 1.51666 4.81567L1.54889 4.78149L1.586 4.75317L5.08795 2.10767Z" fill="#8C8C8C"/>
<path d="M9.20976 3.33889V2.75509C9.20976 2.56877 9.28377 2.39007 9.41551 2.25831C9.54725 2.12655 9.72594 2.05252 9.91226 2.05249H10.4862C10.6725 2.05249 10.8512 2.12651 10.983 2.25828C11.1147 2.39004 11.1888 2.56875 11.1888 2.75509V4.62509M6.21596 8.38529H7.45396C7.81328 8.38529 8.15788 8.52801 8.41199 8.78206C8.66609 9.0361 8.80888 9.38067 8.80896 9.73999V11.9472H4.86096V9.73999C4.86104 9.38067 5.00384 9.0361 5.25794 8.78206C5.51204 8.52801 5.85665 8.38529 6.21596 8.38529Z" fill="#8C8C8C"/>
<path d="M9.20976 3.33889V2.75509C9.20976 2.56877 9.28377 2.39007 9.41551 2.25831C9.54725 2.12655 9.72594 2.05252 9.91226 2.05249H10.4862C10.6725 2.05249 10.8512 2.12651 10.983 2.25828C11.1147 2.39004 11.1888 2.56875 11.1888 2.75509V4.62509M6.21596 8.38529H7.45396C7.81328 8.38529 8.15788 8.52801 8.41199 8.78206C8.66609 9.0361 8.80888 9.38067 8.80896 9.73999V11.9472H4.86096V9.73999C4.86104 9.38067 5.00384 9.0361 5.25794 8.78206C5.51204 8.52801 5.85665 8.38529 6.21596 8.38529Z" stroke="#8C8C8C" stroke-width="1.1" stroke-miterlimit="10"/>
</g>
<defs>
<clipPath id="clip0_72_509">
<rect width="12" height="12" fill="white" transform="translate(0.835022 1)"/>
</clipPath>
</defs>
</svg>
