<svg width="24" height="24" viewBox="0 0 24 24" fill="none" xmlns="http://www.w3.org/2000/svg">
<mask id="mask0_2426_5824" style="mask-type:luminance" maskUnits="userSpaceOnUse" x="1" y="1" width="21" height="22">
<path d="M21.7983 9.95924H11.7237V14.1884H17.5126C17.4196 14.7869 17.2106 15.3757 16.9046 15.9126C16.554 16.5277 16.1206 16.996 15.6763 17.3526C14.3456 18.4209 12.7941 18.6394 11.7166 18.6394C8.99479 18.6394 6.66915 16.7964 5.76885 14.2922C5.73252 14.2013 5.70839 14.1074 5.67901 14.0147C5.48007 13.3773 5.37136 12.7023 5.37136 12.0007C5.37136 11.2705 5.48908 10.5716 5.7037 9.91147C6.55029 7.30796 8.92836 5.36339 11.7186 5.36339C12.2798 5.36339 12.8203 5.43337 13.3328 5.57297C14.5041 5.89198 15.3326 6.52028 15.8403 7.01726L18.9036 3.87444C17.0402 2.08457 14.6111 1 11.7135 1C9.39707 0.999948 7.25844 1.75605 5.5059 3.03389C4.08465 4.07018 2.91902 5.45764 2.13236 7.06903C1.40065 8.56311 1 10.2188 1 11.999C1 13.7793 1.40127 15.4523 2.13297 16.9325V16.9425C2.90584 18.514 4.03603 19.8671 5.40965 20.8987C6.60966 21.7998 8.7614 23 11.7135 23C13.4112 23 14.9158 22.6793 16.2427 22.0784C17.2 21.6449 18.0481 21.0795 18.816 20.3528C19.8306 19.3927 20.6252 18.205 21.1675 16.8386C21.7099 15.4722 22 13.927 22 12.2518C22 11.4716 21.9252 10.6793 21.7983 9.95916V9.95924Z" fill="white"/>
</mask>
<g mask="url(#mask0_2426_5824)">
<g filter="url(#filter0_f_2426_5824)">
<path d="M1.00879 12.0391C1.02009 13.7711 1.50376 15.5581 2.23586 17.0007V17.0107C2.76485 18.0583 3.48781 18.8859 4.31126 19.7059L9.28468 17.8541C8.34374 17.3664 8.20016 17.0675 7.52566 16.5222C6.83638 15.813 6.32265 14.9988 6.00272 14.0441H5.98983L6.00272 14.0342C5.79225 13.4037 5.77149 12.7345 5.76372 12.0391H1.00879Z" fill="url(#paint0_radial_2426_5824)"/>
</g>
<g filter="url(#filter1_f_2426_5824)">
<path d="M12.0386 1.01367C11.547 2.77588 11.735 4.4888 12.0386 5.48545C12.6062 5.48588 13.1531 5.55493 13.6716 5.69248C14.8603 6.00782 15.701 6.6289 16.2162 7.12016L19.4046 3.93416C17.5158 2.167 15.2427 1.01646 12.0386 1.01367Z" fill="url(#paint1_radial_2426_5824)"/>
</g>
<g filter="url(#filter2_f_2426_5824)">
<path d="M12.0295 1C9.61828 0.999947 7.39219 1.76653 5.56797 3.06209C4.89064 3.54313 4.26906 4.09881 3.71559 4.71674C3.5706 6.10478 4.801 7.81083 7.23758 7.79671C8.4198 6.39346 10.1683 5.48556 12.1143 5.48556C12.1161 5.48556 12.1178 5.4857 12.1196 5.48571L12.0401 1.00032C12.0365 1.00032 12.0331 1 12.0295 1Z" fill="url(#paint2_radial_2426_5824)"/>
</g>
<g filter="url(#filter3_f_2426_5824)">
<path d="M19.9882 12.5401L17.836 14.0488C17.7416 14.6404 17.5294 15.2224 17.2188 15.7531C16.8631 16.3612 16.4232 16.8241 15.9724 17.1766C14.6247 18.2304 13.0543 18.4474 11.9611 18.4483C10.8312 20.412 10.6331 21.3956 12.0406 22.9805C13.7822 22.9792 15.3263 22.6584 16.6882 22.0577C17.6727 21.6234 18.5449 21.057 19.3346 20.3291C20.3781 19.3672 21.1954 18.1774 21.7532 16.8086C22.311 15.4398 22.6093 13.892 22.6093 12.2139L19.9882 12.5401Z" fill="url(#paint3_radial_2426_5824)"/>
</g>
<g filter="url(#filter4_f_2426_5824)">
<path d="M11.8818 9.79004V14.2882H22.2363C22.3274 13.6721 22.6286 12.875 22.6286 12.215C22.6286 11.4438 22.5527 10.5019 22.424 9.79004H11.8818Z" fill="#3086FF"/>
</g>
<g filter="url(#filter5_f_2426_5824)">
<path d="M3.76682 4.55762C3.12785 5.27101 2.58196 6.06951 2.14914 6.93307C1.40659 8.40995 1 10.2054 1 11.9651C1 11.9899 1.00201 12.0142 1.00217 12.039C1.33103 12.6824 5.54472 12.5592 5.75711 12.039C5.75684 12.0147 5.75416 11.991 5.75416 11.9667C5.75416 11.2449 5.87366 10.713 6.09147 10.0604C6.36017 9.25555 6.7809 8.51437 7.3189 7.87578C7.44086 7.7169 7.76616 7.37534 7.86107 7.17047C7.89722 7.09244 7.79543 7.04864 7.78974 7.02117C7.78337 6.99045 7.6469 7.01515 7.61632 6.99227C7.51925 6.91961 7.32701 6.88167 7.21028 6.84794C6.96078 6.77585 6.54728 6.61688 6.31761 6.45209C5.59164 5.93118 4.45869 5.30896 3.76682 4.55762Z" fill="url(#paint4_radial_2426_5824)"/>
</g>
<g filter="url(#filter6_f_2426_5824)">
<path d="M6.33465 7.02384C8.01811 8.06441 8.50224 6.49861 9.6215 6.00863L7.67451 1.88867C6.95829 2.19584 6.28161 2.57747 5.65376 3.02336C4.71611 3.68928 3.8881 4.50189 3.2041 5.42665L6.33465 7.02384Z" fill="url(#paint5_radial_2426_5824)"/>
</g>
<g filter="url(#filter7_f_2426_5824)">
<path d="M7.02085 17.5371C4.76102 18.3696 4.40723 18.3994 4.19922 19.8285C4.59673 20.2243 5.02382 20.5905 5.47768 20.9224C6.69551 21.8132 9.03808 22.9996 12.034 22.9996C12.0375 22.9996 12.0409 22.9993 12.0444 22.9993V18.3714C12.0422 18.3714 12.0395 18.3715 12.0373 18.3715C10.9154 18.3715 10.0189 18.0708 9.09973 17.548C8.8731 17.419 8.46193 17.7652 8.25292 17.6105C7.96465 17.397 7.27088 17.7944 7.02085 17.5371Z" fill="url(#paint6_radial_2426_5824)"/>
</g>
<g opacity="0.5" filter="url(#filter8_f_2426_5824)">
<path d="M10.7197 18.2246V22.9181C11.1389 22.9682 11.5752 22.9986 12.0328 22.9986C12.4916 22.9986 12.9354 22.9746 13.3667 22.9304V18.2562C12.8834 18.3406 12.4282 18.3705 12.0361 18.3705C11.5845 18.3705 11.1453 18.3169 10.7197 18.2246Z" fill="url(#paint7_linear_2426_5824)"/>
</g>
</g>
<defs>
<filter id="filter0_f_2426_5824" x="0.573274" y="11.6035" width="9.1474" height="8.53802" filterUnits="userSpaceOnUse" color-interpolation-filters="sRGB">
<feFlood flood-opacity="0" result="BackgroundImageFix"/>
<feBlend mode="normal" in="SourceGraphic" in2="BackgroundImageFix" result="shape"/>
<feGaussianBlur stdDeviation="0.217758" result="effect1_foregroundBlur_2426_5824"/>
</filter>
<filter id="filter1_f_2426_5824" x="11.3008" y="0.578157" width="8.539" height="6.97748" filterUnits="userSpaceOnUse" color-interpolation-filters="sRGB">
<feFlood flood-opacity="0" result="BackgroundImageFix"/>
<feBlend mode="normal" in="SourceGraphic" in2="BackgroundImageFix" result="shape"/>
<feGaussianBlur stdDeviation="0.217758" result="effect1_foregroundBlur_2426_5824"/>
</filter>
<filter id="filter2_f_2426_5824" x="3.26859" y="0.564485" width="9.28607" height="7.66791" filterUnits="userSpaceOnUse" color-interpolation-filters="sRGB">
<feFlood flood-opacity="0" result="BackgroundImageFix"/>
<feBlend mode="normal" in="SourceGraphic" in2="BackgroundImageFix" result="shape"/>
<feGaussianBlur stdDeviation="0.217758" result="effect1_foregroundBlur_2426_5824"/>
</filter>
<filter id="filter3_f_2426_5824" x="10.6133" y="11.7784" width="12.4316" height="11.6376" filterUnits="userSpaceOnUse" color-interpolation-filters="sRGB">
<feFlood flood-opacity="0" result="BackgroundImageFix"/>
<feBlend mode="normal" in="SourceGraphic" in2="BackgroundImageFix" result="shape"/>
<feGaussianBlur stdDeviation="0.217758" result="effect1_foregroundBlur_2426_5824"/>
</filter>
<filter id="filter4_f_2426_5824" x="11.4463" y="9.35452" width="11.6181" height="5.36908" filterUnits="userSpaceOnUse" color-interpolation-filters="sRGB">
<feFlood flood-opacity="0" result="BackgroundImageFix"/>
<feBlend mode="normal" in="SourceGraphic" in2="BackgroundImageFix" result="shape"/>
<feGaussianBlur stdDeviation="0.217758" result="effect1_foregroundBlur_2426_5824"/>
</filter>
<filter id="filter5_f_2426_5824" x="0.564485" y="4.1221" width="7.74017" height="8.78998" filterUnits="userSpaceOnUse" color-interpolation-filters="sRGB">
<feFlood flood-opacity="0" result="BackgroundImageFix"/>
<feBlend mode="normal" in="SourceGraphic" in2="BackgroundImageFix" result="shape"/>
<feGaussianBlur stdDeviation="0.217758" result="effect1_foregroundBlur_2426_5824"/>
</filter>
<filter id="filter6_f_2426_5824" x="0.142251" y="-1.17318" width="12.5407" height="11.6091" filterUnits="userSpaceOnUse" color-interpolation-filters="sRGB">
<feFlood flood-opacity="0" result="BackgroundImageFix"/>
<feBlend mode="normal" in="SourceGraphic" in2="BackgroundImageFix" result="shape"/>
<feGaussianBlur stdDeviation="1.53093" result="effect1_foregroundBlur_2426_5824"/>
</filter>
<filter id="filter7_f_2426_5824" x="3.7637" y="17.083" width="8.71576" height="6.35248" filterUnits="userSpaceOnUse" color-interpolation-filters="sRGB">
<feFlood flood-opacity="0" result="BackgroundImageFix"/>
<feBlend mode="normal" in="SourceGraphic" in2="BackgroundImageFix" result="shape"/>
<feGaussianBlur stdDeviation="0.217758" result="effect1_foregroundBlur_2426_5824"/>
</filter>
<filter id="filter8_f_2426_5824" x="10.2842" y="17.7891" width="3.51751" height="5.64544" filterUnits="userSpaceOnUse" color-interpolation-filters="sRGB">
<feFlood flood-opacity="0" result="BackgroundImageFix"/>
<feBlend mode="normal" in="SourceGraphic" in2="BackgroundImageFix" result="shape"/>
<feGaussianBlur stdDeviation="0.217758" result="effect1_foregroundBlur_2426_5824"/>
</filter>
<radialGradient id="paint0_radial_2426_5824" cx="0" cy="0" r="1" gradientTransform="matrix(-0.442861 -10.8298 15.9227 -0.649886 9.18512 19.5427)" gradientUnits="userSpaceOnUse">
<stop offset="0.141612" stop-color="#1ABD4D"/>
<stop offset="0.247515" stop-color="#6EC30D"/>
<stop offset="0.311547" stop-color="#8AC502"/>
<stop offset="0.366013" stop-color="#A2C600"/>
<stop offset="0.445673" stop-color="#C8C903"/>
<stop offset="0.540305" stop-color="#EBCB03"/>
<stop offset="0.615636" stop-color="#F7CD07"/>
<stop offset="0.699345" stop-color="#FDCD04"/>
<stop offset="0.771242" stop-color="#FDCE05"/>
<stop offset="0.860566" stop-color="#FFCE0A"/>
</radialGradient>
<radialGradient id="paint1_radial_2426_5824" cx="0" cy="0" r="1" gradientTransform="matrix(7.521 -1.84446e-05 -1.05711e-05 9.70381 19.1063 6.88964)" gradientUnits="userSpaceOnUse">
<stop offset="0.408458" stop-color="#FB4E5A"/>
<stop offset="1" stop-color="#FF4540"/>
</radialGradient>
<radialGradient id="paint2_radial_2426_5824" cx="0" cy="0" r="1" gradientTransform="matrix(-10.5375 5.83077 7.91978 14.2858 15.0006 -0.404661)" gradientUnits="userSpaceOnUse">
<stop offset="0.231273" stop-color="#FF4541"/>
<stop offset="0.311547" stop-color="#FF4540"/>
<stop offset="0.457516" stop-color="#FF4640"/>
<stop offset="0.540305" stop-color="#FF473F"/>
<stop offset="0.699346" stop-color="#FF5138"/>
<stop offset="0.771242" stop-color="#FF5B33"/>
<stop offset="0.860566" stop-color="#FF6C29"/>
<stop offset="1" stop-color="#FF8C18"/>
</radialGradient>
<radialGradient id="paint3_radial_2426_5824" cx="0" cy="0" r="1" gradientTransform="matrix(-19.11 -24.9224 -9.20816 7.04732 12.1973 21.5731)" gradientUnits="userSpaceOnUse">
<stop offset="0.131546" stop-color="#0CBA65"/>
<stop offset="0.209784" stop-color="#0BB86D"/>
<stop offset="0.297297" stop-color="#09B479"/>
<stop offset="0.396257" stop-color="#08AD93"/>
<stop offset="0.477124" stop-color="#0AA6A9"/>
<stop offset="0.568425" stop-color="#0D9CC6"/>
<stop offset="0.667385" stop-color="#1893DD"/>
<stop offset="0.768727" stop-color="#258BF1"/>
<stop offset="0.858506" stop-color="#3086FF"/>
</radialGradient>
<radialGradient id="paint4_radial_2426_5824" cx="0" cy="0" r="1" gradientTransform="matrix(-1.35237 11.6455 16.1172 1.86812 11.1081 3.05359)" gradientUnits="userSpaceOnUse">
<stop offset="0.366013" stop-color="#FF4E3A"/>
<stop offset="0.457516" stop-color="#FF8A1B"/>
<stop offset="0.540305" stop-color="#FFA312"/>
<stop offset="0.615636" stop-color="#FFB60C"/>
<stop offset="0.771242" stop-color="#FFCD0A"/>
<stop offset="0.860566" stop-color="#FECF0A"/>
<stop offset="0.915033" stop-color="#FECF08"/>
<stop offset="1" stop-color="#FDCD01"/>
</radialGradient>
<radialGradient id="paint5_radial_2426_5824" cx="0" cy="0" r="1" gradientTransform="matrix(-3.90905 4.31924 -12.1941 -11.0153 9.20775 2.93238)" gradientUnits="userSpaceOnUse">
<stop offset="0.315904" stop-color="#FF4C3C"/>
<stop offset="0.603818" stop-color="#FF692C"/>
<stop offset="0.726837" stop-color="#FF7825"/>
<stop offset="0.884534" stop-color="#FF8D1B"/>
<stop offset="1" stop-color="#FF9F13"/>
</radialGradient>
<radialGradient id="paint6_radial_2426_5824" cx="0" cy="0" r="1" gradientTransform="matrix(-10.5375 -5.83077 7.91978 -14.2858 15.0049 24.3382)" gradientUnits="userSpaceOnUse">
<stop offset="0.231273" stop-color="#0FBC5F"/>
<stop offset="0.311547" stop-color="#0FBC5F"/>
<stop offset="0.366013" stop-color="#0FBC5E"/>
<stop offset="0.457516" stop-color="#0FBC5D"/>
<stop offset="0.540305" stop-color="#12BC58"/>
<stop offset="0.699346" stop-color="#28BF3C"/>
<stop offset="0.771242" stop-color="#38C02B"/>
<stop offset="0.860566" stop-color="#52C218"/>
<stop offset="0.915033" stop-color="#67C30F"/>
<stop offset="1" stop-color="#86C504"/>
</radialGradient>
<linearGradient id="paint7_linear_2426_5824" x1="10.7197" y1="20.6116" x2="13.3667" y2="20.6116" gradientUnits="userSpaceOnUse">
<stop stop-color="#0FBC5C"/>
<stop offset="1" stop-color="#0CBA65"/>
</linearGradient>
</defs>
</svg>
