<svg width="14" height="14" viewBox="0 0 14 14" fill="none" xmlns="http://www.w3.org/2000/svg">
<path d="M5.47273 8.13636C6.97896 8.13636 8.2 9.40828 8.2 10.9773V11.4318C8.2 11.7456 7.95579 12 7.65455 12H1.54545C1.24421 12 1 11.7456 1 11.4318V10.9773C1 9.40828 2.22104 8.13636 3.72727 8.13636H5.47273Z" fill="#8C8C8C"/>
<path d="M12.4 6.86364C12.7314 6.86364 13 7.11802 13 7.43182C13 7.74562 12.7314 8 12.4 8H8.2C7.86863 8 7.6 7.74562 7.6 7.43182C7.6 7.11802 7.86863 6.86364 8.2 6.86364H12.4Z" fill="#8C8C8C"/>
<path d="M4.6 3.25C5.59411 3.25 6.4 4.08947 6.4 5.125C6.4 6.16053 5.59411 7 4.6 7C3.60589 7 2.8 6.16053 2.8 5.125C2.8 4.08947 3.60589 3.25 4.6 3.25Z" fill="#8C8C8C"/>
<path d="M12.4 4.43182C12.7314 4.43182 13 4.6862 13 5C13 5.3138 12.7314 5.56818 12.4 5.56818H8.2C7.86863 5.56818 7.6 5.3138 7.6 5C7.6 4.6862 7.86863 4.43182 8.2 4.43182H12.4Z" fill="#8C8C8C"/>
<path d="M12.4 2C12.7314 2 13 2.25438 13 2.56818C13 2.88198 12.7314 3.13636 12.4 3.13636H8.2C7.86863 3.13636 7.6 2.88198 7.6 2.56818C7.6 2.25438 7.86863 2 8.2 2H12.4Z" fill="#8C8C8C"/>
</svg>
