<svg width="14" height="14" viewBox="0 0 14 14" fill="none" xmlns="http://www.w3.org/2000/svg">
<path d="M6.41669 5.24992C6.41669 6.21825 5.63502 6.99992 4.66669 6.99992C3.69835 6.99992 2.91669 6.21825 2.91669 5.24992C2.91669 4.28159 3.69835 3.49992 4.66669 3.49992C5.63502 3.49992 6.41669 4.28159 6.41669 5.24992ZM8.16669 11.6666H1.16669V10.4999C1.16669 9.21075 2.73585 8.16658 4.66669 8.16658C6.59752 8.16658 8.16669 9.21075 8.16669 10.4999M12.8334 6.99992V8.16658H7.58335V6.99992M12.8334 4.66659V5.83325H7.58335V4.66659M12.8334 2.33325V3.49992H7.58335V2.33325H12.8334Z" fill="#8C8C8C"/>
</svg>
