<svg width="35" height="35" viewBox="0 0 35 35" fill="none" xmlns="http://www.w3.org/2000/svg">
<path d="M6.51587 25.5673C8.19991 28.7516 11.5626 29.8958 17.4998 29.8958C25.7037 29.8958 28.9921 27.7112 29.7284 20.9785M6.51587 25.5673C5.51123 23.6675 5.104 21.042 5.104 17.5C5.104 8.02079 8.02067 5.10413 17.4998 5.10413C26.979 5.10413 29.8957 8.02079 29.8957 17.5C29.8957 18.7753 29.8429 19.9319 29.7284 20.9785M6.51587 25.5673L11.0624 21.0207C12.2015 19.8817 14.0482 19.8817 15.1872 21.0207L15.4375 21.2709C16.5764 22.4099 18.4233 22.4099 19.5622 21.2709L22.7291 18.104C23.8681 16.965 25.7149 16.965 26.8539 18.104L29.7284 20.9785M15.5909 12.9004C15.5909 14.3864 14.3848 15.5925 12.8988 15.5925C11.4142 15.5925 10.2082 14.3864 10.2082 12.9004C10.2082 11.4143 11.4142 10.2083 12.8988 10.2083C14.3848 10.2083 15.5909 11.4143 15.5909 12.9004Z" stroke="#BCBCBC" stroke-width="2.56" stroke-linecap="round" stroke-linejoin="round"/>
</svg>
