<svg width="95" height="32" viewBox="0 0 95 32" fill="none" xmlns="http://www.w3.org/2000/svg">
<path d="M69.8164 0C70.1947 9.54001e-06 70.5698 0.0138277 70.9414 0.0400391C71.4623 0.0137688 71.9883 0 72.5186 0C84.7078 2.50338e-05 94.5887 7.05805 94.5889 15.7646C94.5889 24.4713 84.7079 31.5293 72.5186 31.5293C71.9883 31.5293 71.4623 31.5146 70.9414 31.4883C70.5698 31.5145 70.1947 31.5293 69.8164 31.5293H24.7734C24.3951 31.5293 24.0201 31.5145 23.6484 31.4883C23.1275 31.5146 22.6016 31.5303 22.0713 31.5303C9.88189 31.5303 0 24.4714 0 15.7646C0.000187605 7.05805 9.88201 0 22.0713 0C22.6009 7.29428e-06 23.1262 0.0138244 23.6465 0.0400391C24.0187 0.0137462 24.3945 2.62014e-07 24.7734 0H69.8164Z" fill="#007AFF"/>
<path d="M18.451 10.51C18.5258 10.5096 18.6011 10.5167 18.6757 10.5316L18.9235 10.5808L19.1713 10.6302C19.2338 10.6426 19.2957 10.6603 19.3562 10.6832L19.5907 10.7721L19.825 10.8609C19.8364 10.8652 19.8477 10.8697 19.8589 10.8742L19.8923 10.8881L20.1281 10.9888L20.3639 11.0897C20.5392 11.1646 20.6832 11.2834 20.7881 11.4256L20.8086 11.4543L20.9598 11.6747L21.0544 11.8126L21.1633 11.9101L21.261 11.9976L21.3991 12.0663L21.6396 12.1858C21.7579 12.2447 21.8692 12.3276 21.9635 12.4349L22.1334 12.6281L22.3033 12.8215C22.4247 12.9596 22.5004 13.1196 22.5356 13.2807L22.5421 13.313L22.5805 13.5206L22.7504 13.6625C22.9587 13.8365 23.0965 14.0934 23.1114 14.3817L23.1251 14.6475L23.1338 14.8151L23.177 14.9586L23.2374 15.1598L23.3239 15.3608L23.4256 15.5971C23.472 15.7051 23.5006 15.8207 23.509 15.9397L23.5449 16.4452C23.5456 16.455 23.5463 16.4647 23.547 16.4744L23.5656 16.7261L23.5699 16.7832L23.6061 16.8483L23.737 17.0838C23.8453 17.2786 23.8892 17.5075 23.8514 17.7364L23.8087 17.9938L23.7809 18.1621L23.7906 18.3213L23.8028 18.5235L23.8436 18.7307L23.8935 18.9847C23.9319 19.1794 23.9117 19.3761 23.8407 19.5529L23.7432 19.7955L23.6896 19.9286L23.6769 20.0585L23.6526 20.3069C23.6471 20.3632 23.6374 20.419 23.6238 20.4738L23.5637 20.7158L23.5036 20.9579C23.4854 21.0313 23.4593 21.1039 23.4248 21.1742L23.3178 21.3927L23.2817 21.4663L23.2722 21.58L23.2493 21.8531C23.2227 22.1699 23.043 22.4646 22.7449 22.6259L22.5114 22.7522L22.3599 22.834L22.2461 22.9358L22.062 23.1002C21.914 23.2325 21.7317 23.3156 21.5382 23.3429L21.2898 23.3782L21.2416 23.385L21.1836 23.4242L20.9598 23.5753C20.6896 23.7576 20.3482 23.7923 20.0444 23.6719L19.7895 23.571L19.712 23.5402L19.6551 23.543L19.4066 23.555C19.3315 23.5586 19.2565 23.5546 19.1827 23.5433L18.9349 23.505L18.687 23.4668C18.6285 23.4578 18.5712 23.4444 18.5156 23.427L18.2728 23.3513L18.03 23.2757C17.8238 23.2114 17.6472 23.0849 17.5204 22.9184L17.3635 22.7125L17.2816 22.605L17.179 22.5296L16.9762 22.3808C16.8676 22.301 16.7754 22.2015 16.7045 22.0876L16.5715 21.8738L16.5447 21.8307L16.4839 21.7915L16.2554 21.6434C16.0587 21.5161 15.9047 21.3206 15.8332 21.0821L15.7577 20.8303L15.7009 20.6409L15.6183 20.4743L15.5438 20.3242L15.4374 20.1892L15.2791 19.9879C15.2306 19.9264 15.1882 19.8594 15.1531 19.7878L15.0421 19.5611L14.9309 19.3346C14.8964 19.2642 14.8698 19.1913 14.851 19.1173L14.788 18.8694L14.7515 18.7259L14.6814 18.5991L14.575 18.4063L14.4458 18.2203L14.2979 18.0069C14.1944 17.8575 14.133 17.6855 14.1183 17.5077L14.0968 17.2487L14.0839 17.0931L13.9695 16.7616C13.8031 16.3655 13.9206 15.9019 14.2682 15.6406L14.267 15.6061L14.2588 15.356L14.2581 15.3212C14.258 15.2864 14.2592 15.2516 14.2621 15.2169L14.2822 14.9677L14.3022 14.7185C14.3035 14.704 14.3047 14.6894 14.306 14.6749L14.3294 14.424L14.3495 14.2076L14.3463 13.9948L14.3425 13.7464L14.3425 13.7219C14.3435 13.5999 14.3661 13.4799 14.4089 13.3669L14.4969 13.1346L14.5849 12.9022C14.5965 12.8716 14.6092 12.8415 14.6227 12.8121L14.7277 12.5846L14.8327 12.357L14.8455 12.3304C14.911 12.1986 15.0036 12.0852 15.115 11.9955L15.3135 11.8357L15.4301 11.7419L15.5132 11.6292L15.6589 11.4313C15.7792 11.2681 15.947 11.1455 16.142 11.0806L16.3747 11.003L16.5066 10.9591L16.639 10.8727L16.859 10.7288L16.884 10.713C17.01 10.6357 17.156 10.5843 17.3137 10.5688L17.5676 10.5439L17.8215 10.5189L17.8516 10.5163C17.8717 10.5148 17.892 10.5137 17.9121 10.5131L17.9425 10.5126L18.451 10.51ZM44.6648 10.4589C44.7722 9.94286 45.2792 9.6024 45.7971 9.69841C45.9251 9.72214 46.0417 9.77036 46.1433 9.83722C46.5213 9.8327 46.8716 10.0522 47.02 10.4069L47.2164 10.8166C47.2367 10.859 47.2971 10.9864 47.3165 11.1578L47.3198 11.1927L47.3394 11.4498L47.3428 11.4939L47.3657 11.5304L47.5013 11.7467C47.5233 11.7818 47.5436 11.8185 47.5621 11.8566L47.5799 11.8953L47.7807 12.3533C47.8174 12.4371 47.8425 12.5246 47.8559 12.6137L47.861 12.652L47.8899 12.9045L47.9111 13.092L47.9632 13.2683L48.0147 13.4425L48.0983 13.6083L48.2116 13.8337C48.2462 13.9024 48.2734 13.9754 48.2925 14.0515L48.3001 14.0842L48.4058 14.5725C48.421 14.6423 48.4287 14.7117 48.4301 14.7796L48.4303 14.8087L48.429 15.0191L48.5701 15.1977C48.6634 15.3159 48.7349 15.4618 48.7661 15.6287L48.7718 15.6622L48.8095 15.9109L48.8283 16.0348L48.8834 16.148L48.9932 16.3737C49.0583 16.5072 49.0906 16.6495 49.0937 16.7902L49.094 16.8184L49.0925 17.0797L49.0918 17.1885L49.1253 17.2796L49.2113 17.5138C49.2163 17.5272 49.2211 17.5408 49.2258 17.5542L49.309 17.7896L49.3871 18.0103L49.4808 18.2281L49.5528 18.3954C49.5602 18.3722 49.5684 18.3491 49.5773 18.3264L49.6704 18.089L49.6748 18.078L49.6702 18.049L49.6283 17.7836C49.5961 17.5798 49.6271 17.3612 49.7319 17.1611L49.8536 16.9289L49.9302 16.7825L49.9686 16.6319L50.0043 16.4912L50.0029 16.344L50.0002 16.0899C49.9996 16.0261 50.0044 15.9615 50.0149 15.8967L50.055 15.649L50.0954 15.4012C50.1059 15.3365 50.1218 15.2737 50.1425 15.2132L50.2256 14.9702L50.2682 14.8459L50.2728 14.7189L50.28 14.5188L50.2579 14.3152L50.2301 14.0604C50.2125 13.8978 50.2348 13.734 50.2941 13.5816L50.3886 13.3387L50.4253 13.2445L50.428 12.8918L50.4288 12.8058L50.445 12.7209L50.4464 12.7133C50.5456 12.1958 51.0473 11.8469 51.567 11.934C52.0467 12.0144 52.374 12.4383 52.3435 12.9101L52.34 13.3606C52.3396 13.4111 52.3377 13.5686 52.2686 13.7461L52.1741 13.9888L52.1583 14.0296L52.1628 14.071L52.1904 14.3259C52.1949 14.3669 52.1972 14.4087 52.1973 14.4509L52.1965 14.4933L52.1785 14.9966C52.1748 15.1018 52.1551 15.2048 52.1215 15.3029L52.0385 15.5459L51.9763 15.7274L51.9466 15.911L51.9167 16.0944L51.9186 16.2839L51.9211 16.538C51.922 16.6296 51.9111 16.7218 51.888 16.8129L51.7637 17.3029C51.742 17.3885 51.7104 17.4693 51.6712 17.544L51.5674 17.742L51.605 17.9805C51.6312 18.1463 51.6171 18.3287 51.547 18.5074L51.4539 18.7448L51.4028 18.8748L51.3885 19.0142L51.3626 19.2672C51.3461 19.4279 51.2921 19.5784 51.2103 19.7095L51.0703 19.9338L51.0141 20.0238L50.9953 20.116L50.9452 20.3629C50.9424 20.3763 50.9396 20.3898 50.9367 20.4032L50.8839 20.6499L50.8344 20.8813L50.7993 21.1198L50.7622 21.3717C50.7322 21.5747 50.6434 21.751 50.5261 21.8885L50.49 21.9308C50.4836 22.1092 50.427 22.3354 50.2457 22.5398L50.1991 22.5922L50.1697 22.6253L50.1669 22.6278C50.0466 22.7713 49.8838 22.8825 49.6908 22.9391C49.5569 22.9784 49.4219 22.9874 49.293 22.9705C49.291 22.9703 49.2871 22.9697 49.2871 22.9697C49.2748 22.9681 49.2625 22.9661 49.2503 22.964C49.2442 22.9629 49.2381 22.9618 49.232 22.9606C49.22 22.9582 49.2081 22.9555 49.1963 22.9527C48.8438 22.8698 48.5866 22.6004 48.5057 22.272L48.4867 22.2041L48.4439 22.1581C48.2678 21.9684 48.1694 21.7097 48.1879 21.433L48.2057 21.1675L48.21 21.1038L48.1913 21.0584L48.0956 20.8269C48.0467 20.7088 48.0215 20.5844 48.0187 20.46L48.0139 20.2398L47.8599 20.0424C47.6931 19.8288 47.6244 19.5563 47.6684 19.2868L47.7125 19.0168L47.7149 19.0011L47.6175 18.7743C47.6051 18.7458 47.5936 18.7166 47.5832 18.687L47.5 18.4517L47.4169 18.2164C47.4145 18.21 47.4123 18.2035 47.4099 18.197L47.2379 17.7286C47.1943 17.6099 47.1749 17.4881 47.1755 17.3697L47.177 17.1083L47.1773 17.0487L47.1555 17.0038L47.0456 16.7783C47 16.6846 46.9688 16.5844 46.9531 16.4808L46.9153 16.2321L46.9119 16.2107L46.8874 16.1796L46.7216 15.9696C46.5891 15.8017 46.5105 15.5887 46.5118 15.358L46.5133 15.0975L46.5143 14.9239L46.4799 14.7646L46.4486 14.6202L46.3808 14.4856L46.2675 14.2603C46.2383 14.2021 46.2139 14.1408 46.195 14.077L46.1244 13.8381L46.0538 13.5994C46.0351 13.5365 46.0225 13.4728 46.0152 13.4091L45.9864 13.1567L45.9764 13.0702C45.9695 13.0868 45.9625 13.1032 45.9548 13.1194L45.8446 13.3508L45.7694 13.509L45.7284 13.6744L45.6878 13.8379L45.6818 14.0088L45.6728 14.2623C45.6699 14.3435 45.6579 14.4251 45.6364 14.5058L45.5066 14.9915C45.4864 15.067 45.4589 15.138 45.426 15.2039L45.3324 15.3916L45.3784 15.6131C45.4109 15.7686 45.4084 15.9417 45.3549 16.1161L45.2805 16.3585L45.2464 16.4696L45.2487 16.5857L45.2539 16.8378L45.2541 16.866C45.2532 17.0064 45.2232 17.1417 45.1704 17.265L45.067 17.5067L45.0311 17.59L45.0299 17.6699L45.0259 17.9211C45.0258 17.9273 45.0257 17.9334 45.0257 17.9396L45.0253 18.1904L45.0249 18.4162L45.0442 18.6432L45.0656 18.8943C45.0824 19.0923 45.0388 19.2773 44.9616 19.4323L44.8952 19.5656L44.9474 19.7016C45.0176 19.8846 45.0363 20.0979 44.9787 20.3135L44.9121 20.5627L44.8872 20.6556L44.8972 20.746L44.9247 20.9963C44.9278 21.0247 44.9324 21.0759 44.9306 21.1386C44.9295 21.177 44.9255 21.3356 44.843 21.5166L44.8062 21.5972L44.8007 21.6092L44.795 21.6211L44.7855 21.6403C44.6299 22.0308 44.2283 22.2919 43.7903 22.2528C43.2646 22.2056 42.8857 21.7436 42.944 21.2208L42.9449 21.2132L42.9633 21.0481L42.9927 20.9882L42.9654 20.7401C42.9513 20.6112 42.9618 20.4826 42.9947 20.3601L43.053 20.1424L42.9615 19.9044C42.8631 19.6474 42.8782 19.3611 43.0023 19.1118L43.1251 18.8654L43.1356 18.844L43.1354 18.8421L43.114 18.591C43.1109 18.5535 43.1093 18.5156 43.1093 18.4776L43.1097 18.2268L43.1102 17.9759C43.1102 17.9607 43.1104 17.9454 43.1106 17.9302L43.1146 17.6791L43.1187 17.428C43.1209 17.2889 43.1513 17.1561 43.2029 17.0356L43.3064 16.7938L43.335 16.7272L43.3336 16.6642L43.3284 16.412C43.3261 16.3006 43.3417 16.1891 43.3747 16.0815L43.4491 15.8392L43.4565 15.8152L43.4476 15.7725L43.3927 15.5097C43.3487 15.2985 43.3735 15.0693 43.4782 14.8593L43.5955 14.6241L43.6767 14.4614L43.7205 14.2973L43.7618 14.1433L43.7675 13.981L43.7765 13.7275C43.7792 13.6519 43.7897 13.5759 43.8083 13.5007L43.8688 13.2566L43.9294 13.0125L43.9365 12.9848C43.9542 12.9207 43.9774 12.8588 44.0055 12.7997L44.1157 12.5683L44.1768 12.44L44.2006 12.3044L44.2368 12.1L44.2471 11.8863L44.2595 11.6296C44.2677 11.4615 44.3176 11.2989 44.4032 11.1549L44.5368 10.93L44.5922 10.8367L44.6601 10.4817L44.6615 10.4741L44.6648 10.4589ZM29.0041 7.3608L29.2574 7.37225L29.5109 7.38364C29.6369 7.38932 29.7605 7.41796 29.8759 7.46802L29.899 7.47821L30.1291 7.58478L30.2408 7.63653L30.3782 7.65416L30.6441 7.68837C30.8903 7.72001 31.1232 7.84344 31.2884 8.047L31.3041 8.06693L31.4631 8.27341L31.6081 8.46186L31.7678 8.6371L31.9427 8.82919C32.0783 8.97806 32.1635 9.16079 32.1934 9.35332L32.234 9.61483L32.2587 9.774L32.3165 9.90914L32.4154 10.1399C32.4334 10.182 32.4491 10.225 32.4623 10.2684L32.5359 10.5107L32.6095 10.753C32.6135 10.7662 32.6173 10.7795 32.6209 10.7927L32.6313 10.8324L32.6938 11.0846L32.7563 11.3367C32.8191 11.5904 32.7775 11.8447 32.6639 12.0538L32.5339 12.2931L32.5324 12.2958L32.5329 12.3013L32.556 12.5744C32.5773 12.8256 32.5036 13.0894 32.3253 13.3011L32.156 13.502L32.0318 13.6495L31.9393 13.8113L31.8121 14.0339C31.7091 14.2138 31.5574 14.3511 31.383 14.4371L31.3478 14.4537L31.1241 14.5534L30.9862 14.7833C30.8762 14.9668 30.7016 15.1249 30.4727 15.2095L30.2301 15.299L29.9876 15.3886C29.9668 15.3963 29.9457 15.4036 29.9244 15.4105L29.6833 15.4899L29.4423 15.5693C29.4329 15.5724 29.4235 15.5754 29.4142 15.5785L28.9338 15.738C28.7949 15.7841 28.6525 15.7988 28.5157 15.7865L28.2551 15.7632L28.1972 15.7579L28.1486 15.7765L27.9091 15.8678C27.8244 15.9001 27.7347 15.9222 27.6419 15.9324L27.3918 15.9599L27.1417 15.9873C27.1315 15.9885 27.111 15.9907 27.0872 15.9922C27.0763 15.993 27.052 15.9944 27.0215 15.9944C27.0065 15.9944 26.9792 15.9941 26.9454 15.9914C26.9423 15.9911 26.9381 15.9908 26.9331 15.9903L26.9608 16.0982C26.9628 16.1061 26.9649 16.114 26.967 16.1218L27.0313 16.3651L27.0899 16.5866L27.1667 16.8031L27.2515 17.042C27.3183 17.2304 27.3234 17.4206 27.2878 17.5897L27.2574 17.7339L27.3423 17.8534C27.4493 18.004 27.5198 18.1908 27.5278 18.3968L27.5285 18.4383L27.528 18.6956L27.5277 18.7897L27.5601 18.8733L27.6517 19.109C27.7104 19.2607 27.7295 19.4168 27.7174 19.5645L27.7044 19.7213L27.818 19.8567C27.918 19.9759 27.999 20.1281 28.0352 20.3067L28.0419 20.3428L28.0831 20.5917L28.1242 20.8406C28.1267 20.856 28.1309 20.8831 28.1342 20.9156C28.1347 20.9209 28.1479 21.0285 28.1284 21.1585L28.1184 21.2251L28.1155 21.2444L28.1129 21.2581C28.069 21.6587 27.7726 22.0035 27.3568 22.09C26.8408 22.1974 26.3364 21.8661 26.23 21.3502L26.2285 21.3427L26.1901 21.1565L26.2179 21.0115L26.2006 20.9068L26.1993 20.8992L26.1785 20.8744L26.0015 20.6634C25.839 20.4698 25.7496 20.2135 25.7721 19.942L25.794 19.6766L25.7991 19.613L25.7813 19.5668L25.6897 19.3309C25.6422 19.2085 25.6191 19.0801 25.6194 18.9525L25.6199 18.7269L25.4702 18.5163C25.3093 18.2898 25.2509 18.0079 25.308 17.7363L25.3644 17.4684L25.369 17.446L25.3685 17.4447L25.2838 17.2058C25.2714 17.1712 25.2605 17.1359 25.2511 17.1001L25.1868 16.8568L25.1224 16.6136C25.119 16.6007 25.1156 16.5878 25.1123 16.5748L25.0499 16.3308L24.9874 16.0867C24.9536 15.9546 24.9474 15.8219 24.9637 15.6957L24.9973 15.4357L25.0057 15.3704L24.9883 15.3162L24.9105 15.0744C24.8784 14.9746 24.8613 14.8703 24.8597 14.7647L24.856 14.5116L24.8556 14.4865L24.8342 14.4486L24.7008 14.2136C24.5944 14.0259 24.5471 13.8016 24.581 13.5721L24.6192 13.3136L24.6399 13.1741L24.6215 13.042L24.6052 12.9243L24.5521 12.8155L24.4402 12.5855C24.4138 12.5314 24.3914 12.4746 24.3734 12.4153L24.2273 11.9349C24.1964 11.8333 24.1808 11.727 24.1816 11.6193L24.1834 11.3701L24.185 11.1568L24.1633 10.9449L24.1405 10.721L24.0971 10.4903L24.0492 10.2366C24.0174 10.0671 24.0291 9.89365 24.0822 9.73121L24.163 9.48424L24.1929 9.3925L24.1746 9.06606C24.1291 8.55646 24.4953 8.09789 25.007 8.03319C25.2025 8.00846 25.3917 8.04478 25.5551 8.1273C25.6099 8.11159 25.6722 8.09849 25.7404 8.09211L25.9982 8.06788L26.0613 8.06198L26.1148 8.03062L26.3373 7.90007L26.3598 7.88727C26.4125 7.8579 26.4681 7.83248 26.526 7.81156L27.0041 7.63904L27.0462 7.62487C27.1451 7.59386 27.2471 7.57789 27.3491 7.57676L27.6058 7.57398L27.8194 7.57163L28.0248 7.5435L28.2309 7.51546L28.4373 7.46073L28.6847 7.39515C28.7752 7.37118 28.8689 7.35909 28.9635 7.35972L29.0041 7.3608ZM18.2327 12.4173L18.0068 12.4185L17.7806 12.4407L17.7416 12.4446L17.7009 12.4712L17.4808 12.6151C17.4089 12.6622 17.3265 12.7037 17.2344 12.7345L17.0367 12.8001L16.912 12.9694C16.8563 13.045 16.7924 13.1106 16.7234 13.1661L16.5249 13.3258L16.4847 13.3581L16.465 13.401L16.367 13.6131L16.2851 13.8294L16.2552 13.9083L16.2565 13.9921L16.2602 14.2407C16.2609 14.2858 16.2592 14.3305 16.255 14.3746L16.2316 14.6255L16.2083 14.8764C16.2077 14.8832 16.2071 14.89 16.2065 14.8966L16.1864 15.1458L16.1694 15.357L16.1764 15.5697L16.1809 15.7113L16.2216 15.8464L16.2736 16.019L16.3268 16.1241L16.4135 16.2949C16.4231 16.3139 16.465 16.3952 16.4925 16.5054C16.5045 16.5533 16.5373 16.6936 16.5124 16.8717C16.4903 17.0291 16.4107 17.262 16.2101 17.4415C16.2166 17.4525 16.2229 17.4636 16.2292 17.4749L16.3516 17.6963L16.4739 17.9178C16.5138 17.9901 16.545 18.0657 16.5673 18.1433L16.5763 18.1766L16.6393 18.4244L16.6817 18.5912L16.7558 18.7421L16.829 18.8911L16.9339 19.0243L17.0922 19.2255C17.1337 19.2782 17.1708 19.335 17.2028 19.3955L17.2162 19.4216L17.3281 19.6472L17.4401 19.8727C17.4626 19.9182 17.4817 19.9641 17.4973 20.0096L17.5119 20.0551L17.5654 20.2335L17.737 20.3445C17.8495 20.4174 17.9561 20.5167 18.0408 20.6442L18.0574 20.6701L18.1904 20.8839L18.233 20.9522L18.2979 20.9998L18.5007 21.1489C18.5866 21.2119 18.6605 21.2856 18.722 21.3663L18.8575 21.5443L19.0093 21.5916L19.2016 21.6213L19.3694 21.6472L19.5375 21.6391L19.7859 21.6272L19.8157 21.6262C19.9542 21.6236 20.0826 21.6491 20.1952 21.6906L20.219 21.6998L20.2746 21.7218L20.322 21.6898C20.4402 21.6101 20.5842 21.5491 20.7483 21.5259L20.9773 21.4935L21.1446 21.344C21.2107 21.2849 21.2806 21.2374 21.3501 21.1998L21.3864 21.1801L21.3912 21.1227C21.4008 21.0083 21.4302 20.8818 21.4922 20.7554L21.5992 20.5369L21.6691 20.3942L21.7091 20.2338L21.7564 20.0431L21.7756 19.8477L21.7998 19.5993C21.81 19.4951 21.8353 19.3973 21.8711 19.3083L21.968 19.0672L21.9191 18.8198C21.9091 18.7684 21.9022 18.7154 21.8989 18.6609L21.8837 18.4109L21.8685 18.1608L21.8671 18.1292C21.8647 18.0557 21.8699 17.9844 21.8812 17.9163L21.9147 17.713L21.8075 17.5199C21.7383 17.3955 21.6908 17.2507 21.6791 17.0929L21.6419 16.5894C21.641 16.5777 21.6401 16.566 21.6392 16.5542L21.6213 16.3015L21.6137 16.1944L21.5699 16.0926L21.4683 15.8564C21.4499 15.8135 21.4335 15.7689 21.4196 15.7226L21.3477 15.4834L21.2758 15.2442C21.2492 15.1555 21.2352 15.0686 21.2309 14.986L21.2243 14.857L21.1108 14.7621C20.9313 14.6123 20.8058 14.4034 20.7622 14.1672L20.7128 13.9008L20.7087 13.8787L20.7045 13.8738L20.6501 13.8119L20.5658 13.7701L20.3254 13.6506C20.2438 13.61 20.1608 13.5561 20.0825 13.4862L19.7139 13.1564C19.6437 13.0935 19.586 13.0255 19.5393 12.9572L19.388 12.737L19.387 12.7356L19.163 12.6399L18.9331 12.5528L18.7588 12.4867L18.5742 12.4499L18.4061 12.4165L18.2327 12.4173ZM36.1087 7.56082C36.1749 7.55783 36.3144 7.55709 36.4712 7.60547L36.7187 7.68181L36.7591 7.69437L36.7995 7.68686L37.0537 7.64039C37.1075 7.63052 37.1629 7.62418 37.2192 7.62186L37.4718 7.61145L37.7242 7.60111L37.7636 7.60029C37.8422 7.59998 37.92 7.60839 37.9954 7.62494L38.0329 7.63392L38.2804 7.69766L38.4657 7.74548L38.6512 7.76093L38.8445 7.7771L39.0434 7.76343L39.2985 7.74584L39.3346 7.74397C39.4067 7.74142 39.4795 7.74609 39.5517 7.75834L39.5878 7.76511L40.0819 7.86648C40.168 7.88414 40.2491 7.9117 40.3242 7.94687L40.5228 8.03984L40.7573 7.99005L40.7895 7.98375C40.9536 7.9545 41.158 7.95978 41.3665 8.05077L41.5755 8.14205L41.5799 8.14394L41.5842 8.14592L41.7417 8.21646C42.1418 8.36118 42.4069 8.76374 42.3604 9.20735C42.3053 9.73163 41.8357 10.1148 41.3115 10.0631L41.3039 10.0623L41.1497 10.0472L41.0085 9.98379L40.8584 9.9164L40.6117 9.9688C40.4053 10.0126 40.1826 9.99237 39.9782 9.89667L39.7421 9.78622L39.5927 9.71625L39.4397 9.68488L39.3041 9.65709L39.1626 9.66688L38.9075 9.68446C38.8491 9.68848 38.7899 9.68815 38.7301 9.68315L38.4801 9.66224L38.2302 9.64139C38.1651 9.63594 38.1016 9.62493 38.0402 9.60912L37.7929 9.54538L37.6656 9.51256L37.5378 9.51785L37.336 9.52608L37.1319 9.56357L36.8777 9.61011C36.7232 9.6384 36.5658 9.63057 36.4167 9.58854L36.4152 9.63833C36.4137 9.69008 36.4081 9.85518 36.3291 10.0374L36.2256 10.2762L36.2114 10.3089L36.2143 10.343L36.2359 10.6002C36.2388 10.634 36.2403 10.6685 36.2404 10.7034L36.2399 10.7385L36.2262 11.2409C36.2238 11.3317 36.2099 11.4209 36.1857 11.5066L36.1164 11.752L36.0735 11.9039L36.0674 12.0578L36.0606 12.2303L36.0885 12.4051L36.1286 12.6565C36.1422 12.7418 36.1457 12.8292 36.1385 12.9172L36.1177 13.1681L36.097 13.419C36.0903 13.499 36.0753 13.5757 36.0535 13.6482L36.0069 13.8024L36.1745 13.7912C36.2212 13.7881 36.3597 13.7794 36.5232 13.8217L36.5561 13.8309L36.8048 13.9044L36.843 13.9158L36.8808 13.9082L37.1339 13.8575L37.1731 13.8504C37.2126 13.8439 37.2528 13.8393 37.2937 13.8368L37.7975 13.8052L37.836 13.8034C37.9129 13.8015 37.9891 13.8078 38.0634 13.822L38.1004 13.8297L38.3496 13.8863L38.531 13.9277L38.7122 13.9356L38.892 13.9436L39.0744 13.9183L39.327 13.8832L39.3595 13.8792C39.4245 13.8721 39.4905 13.8709 39.5568 13.8758L39.5899 13.8788L40.0905 13.9313C40.1664 13.9393 40.2486 13.9561 40.3336 13.9859L40.4952 13.9916C41.0168 14.0103 41.4251 14.4444 41.4138 14.9645L41.414 14.9657L41.4097 15.0836C41.4031 15.2614 41.3445 15.471 41.1929 15.6554C41.0484 15.8313 40.8749 15.9166 40.752 15.957C40.5385 16.0271 40.3594 16.0011 40.3201 15.9956C40.2058 15.9797 40.1186 15.9455 40.1035 15.9398L39.8919 15.8595L39.7823 15.8179L39.6389 15.8029L39.4884 15.787L39.3348 15.8085L39.0823 15.8435C39.0149 15.8528 38.9461 15.8563 38.8767 15.8532L38.3749 15.831C38.3062 15.828 38.2389 15.8186 38.1736 15.8038L37.9245 15.7471L37.7933 15.7174L37.6625 15.7254L37.459 15.7382L37.2528 15.7794L36.9996 15.83C36.8361 15.8627 36.6683 15.8548 36.5099 15.8079L36.2614 15.7344L36.1606 15.7044L36.1356 15.706C36.131 15.7271 36.126 15.7478 36.1201 15.7684L36.0487 16.0206L36.0242 16.107L36.0333 16.1859L36.0619 16.436C36.0627 16.4427 36.0635 16.4492 36.0643 16.4559L36.0962 16.7055L36.1234 16.9189L36.1737 17.1276L36.2325 17.3714C36.2772 17.5565 36.2655 17.7359 36.2204 17.8919L36.18 18.0321L36.2554 18.1561C36.3588 18.3255 36.4165 18.5339 36.3987 18.7571L36.3782 19.0139L36.3703 19.1134L36.3968 19.2045L36.401 19.2189L36.5559 19.2912L36.58 19.3025L36.6057 19.3005L36.8635 19.281L36.8942 19.279C36.9249 19.2774 36.9562 19.2768 36.9878 19.2775L37.2386 19.2826L37.4894 19.2878L37.521 19.2889C37.5945 19.2925 37.6666 19.3035 37.7365 19.3212L37.9825 19.3839L38.1475 19.4259L38.3145 19.4326L38.4667 19.4388L38.6187 19.408L38.8678 19.3578C38.9384 19.3435 39.0109 19.3359 39.0843 19.3356L39.3349 19.3344L39.5857 19.3331L39.6133 19.3334C39.6685 19.3345 39.7222 19.3396 39.7741 19.3482L39.7999 19.3528L39.9452 19.3803L40.0764 19.2903L40.4098 19.3089C40.9357 19.3383 41.3357 19.7885 41.303 20.3145C41.2819 20.6544 41.0851 20.9425 40.8068 21.0961L40.7845 21.1115L40.7693 21.122L40.7535 21.1319L40.6574 21.1924C40.4527 21.3215 40.2571 21.339 40.1699 21.342C40.071 21.3454 39.9911 21.333 39.9463 21.3245L39.6899 21.276L39.5073 21.2415L39.3321 21.2423L39.1586 21.2431L38.985 21.2782L38.7359 21.3284C38.6513 21.3455 38.5642 21.3526 38.4765 21.3491L38.2257 21.339L37.9749 21.329C37.897 21.3259 37.8204 21.3144 37.7464 21.2957L37.5004 21.233L37.3447 21.1933L37.1874 21.1902L36.966 21.1857L36.7383 21.203L36.4806 21.2226C36.3058 21.2358 36.1322 21.2038 35.9752 21.1307L35.7405 21.0214L35.634 20.9717L35.2841 20.9344C34.7691 20.8938 34.3808 20.4489 34.413 19.9304C34.4211 19.7991 34.4554 19.6755 34.5104 19.5644L34.4931 19.5047C34.4574 19.3819 34.4453 19.2556 34.4552 19.1316L34.473 18.9087L34.3402 18.6909C34.1957 18.4538 34.1577 18.1679 34.235 17.9001L34.311 17.637L34.3216 17.6001L34.3182 17.5861L34.2594 17.3424C34.2487 17.2981 34.2405 17.2533 34.2347 17.2082L34.1711 16.7092C34.1692 16.6946 34.1674 16.6799 34.1657 16.6653L34.1371 16.4151L34.1083 16.1649C34.0924 16.0259 34.1054 15.8899 34.1412 15.7638L34.2126 15.5116L34.2312 15.4463L34.2217 15.3877L34.1817 15.1372C34.1653 15.0349 34.164 14.9305 34.178 14.8271L34.212 14.576L34.215 14.5543L34.2001 14.5167L34.1015 14.2653C34.0223 14.0636 34.0079 13.8336 34.0752 13.6104L34.1506 13.3595L34.202 13.1893L34.2157 13.023L34.2282 12.871L34.2037 12.7171L34.1636 12.4657C34.1522 12.3941 34.1476 12.3206 34.1505 12.2463L34.1604 11.9952L34.1702 11.7442C34.1736 11.6573 34.1874 11.572 34.2105 11.4901L34.2798 11.2446L34.3212 11.0981L34.3251 10.9501L34.331 10.7356L34.3125 10.515L34.2908 10.2578C34.2765 10.0889 34.3047 9.92017 34.3716 9.76567L34.4751 9.52696L34.5121 9.4418L34.5224 9.09526L34.5227 9.08691L34.5231 9.07857L34.5234 9.07097C34.5319 8.89372 34.5883 8.72986 34.6793 8.59115C34.6773 8.54479 34.6787 8.49766 34.6837 8.45009C34.7352 7.9606 35.1477 7.59424 35.6288 7.5898L36.0851 7.56202L36.1087 7.56082ZM28.9225 9.30555L28.675 9.37113C28.6272 9.38377 28.578 9.39375 28.5278 9.40062L28.2792 9.43462L28.0305 9.46854C27.9797 9.47547 27.9294 9.47906 27.8798 9.47961L27.6231 9.48246L27.5115 9.48359L27.4093 9.5206L27.238 9.58231L27.0777 9.67644L26.8553 9.80693C26.7246 9.8836 26.5796 9.92999 26.4303 9.94398L26.1725 9.96814L26.0962 9.97521L25.9893 10.0343L25.9762 10.0742L25.9664 10.104L25.972 10.1336L26.0198 10.3874C26.0249 10.4145 26.0293 10.4423 26.0328 10.4705L26.036 10.4989L26.0614 10.7471L26.0868 10.9952C26.0903 11.029 26.0922 11.063 26.0929 11.097L26.0932 11.131L26.0913 11.3802L26.0904 11.5001L26.1259 11.6167L26.1817 11.8002L26.2677 11.9768L26.3798 12.2068C26.4221 12.2937 26.4524 12.3863 26.4697 12.4823L26.4762 12.5237L26.5462 13.0273C26.5605 13.1303 26.5594 13.2324 26.5449 13.3309L26.514 13.5394L26.6274 13.7393C26.6595 13.7958 26.6869 13.8569 26.7083 13.9215L26.8009 13.8288L27.2126 14.0599L27.3317 14.0468L27.4718 13.9933L27.7112 13.902C27.86 13.8452 28.0164 13.8251 28.1686 13.8388L28.4292 13.8622L28.5089 13.8693L28.5759 13.8471L28.8162 13.7673C28.8272 13.7636 28.8384 13.7599 28.8495 13.7563L29.0906 13.6769L29.3317 13.5977L29.5151 13.5299L29.635 13.33C29.7375 13.1593 29.8926 13.0146 30.0901 12.9265L30.3034 12.8313L30.411 12.6434L30.4242 12.621C30.4556 12.5689 30.4907 12.5203 30.5286 12.4752L30.6229 12.3631L30.6086 12.1933C30.5919 11.9971 30.6324 11.7992 30.7279 11.6236L30.8191 11.4557L30.7811 11.302L30.7102 11.0688L30.6471 10.8612L30.5627 10.6639L30.4637 10.4332C30.4266 10.3462 30.4025 10.2584 30.3892 10.1726L30.3495 9.91651L30.1814 9.73196C30.1562 9.70438 30.1322 9.67576 30.1095 9.64629L30.0224 9.53317L29.8655 9.51304C29.7633 9.4999 29.6581 9.47135 29.5552 9.42374L29.3251 9.31724L29.2501 9.28251L29.1678 9.27885L29.0442 9.27327L28.9225 9.30555Z" fill="white"/>
<path d="M65.2484 12.3521C65.5167 11.8979 66.102 11.746 66.5555 12.0129C66.6413 12.0633 66.7161 12.1253 66.7794 12.1954C67.0058 12.3212 67.1766 12.5369 67.241 12.7971L67.3759 13.2167C67.3927 13.2689 67.4482 13.4437 67.4233 13.6628L67.394 13.9207L67.3872 13.9793L67.4062 14.0337L67.4908 14.2774C67.5057 14.3202 67.5182 14.3644 67.5281 14.4097L67.5372 14.4556L67.581 14.7041L67.6249 14.9526C67.6438 15.0596 67.6458 15.1673 67.6323 15.2722L67.5995 15.5269L67.5747 15.7195L67.5817 15.9069L67.5885 16.0917L67.6278 16.277L67.6806 16.5266C67.6968 16.6034 67.7049 16.6824 67.704 16.7623L67.7031 16.7965L67.6923 17.0486L67.6816 17.3007C67.678 17.384 67.6651 17.4643 67.6446 17.5405L67.589 17.7473L67.6786 17.9624C67.7419 18.1145 67.772 18.2909 67.7493 18.4765L67.7186 18.7281L67.7021 18.8613L67.7237 18.995L67.7644 19.2462C67.7899 19.4038 67.7775 19.5605 67.734 19.7052L67.6584 19.9567L67.6288 20.0551L67.6355 20.1461L67.6541 20.3971C67.655 20.4093 67.656 20.4216 67.6568 20.434L67.674 20.6857L67.69 20.9198L67.7228 21.1553L67.7576 21.4068C67.7856 21.6093 67.75 21.8006 67.6777 21.9617L67.6135 22.1042L67.6718 22.2468C67.7482 22.4337 67.7716 22.6517 67.7167 22.8712L67.654 23.1219L67.6297 23.2187L67.6399 23.3057L67.6686 23.5502C67.6703 23.565 67.6776 23.6253 67.6755 23.6998C67.6747 23.725 67.6724 23.8352 67.63 23.9675C67.6091 24.0326 67.5555 24.1782 67.4252 24.3212C67.2708 24.4904 67.0204 24.6377 66.7058 24.6338L66.6702 24.6332L66.5753 24.6321L66.5623 24.6292C66.0754 24.5878 65.6932 24.1805 65.6928 23.6824L65.6928 23.6748L65.6919 22.4904L65.7089 22.494L65.6986 22.4688C65.5949 22.2153 65.6007 21.9326 65.7123 21.6843L65.8249 21.4341L65.8317 21.4186L65.7975 21.1716C65.793 21.1392 65.7897 21.1066 65.7874 21.0738L65.7528 20.5705C65.7522 20.5613 65.7515 20.5523 65.7508 20.5433L65.7323 20.2923L65.7138 20.0414C65.7041 19.9096 65.7199 19.7819 65.7552 19.6643L65.8307 19.4128L65.8479 19.3556L65.8397 19.3049L65.7991 19.0537C65.7831 18.9548 65.7811 18.8538 65.7933 18.7534L65.8242 18.5019L65.8264 18.484L65.8125 18.4507L65.7084 18.201C65.6262 18.0035 65.6061 17.777 65.666 17.5548L65.7339 17.3022L65.7787 17.1357L65.7856 16.9731L65.792 16.8251L65.7606 16.6775L65.7079 16.428C65.6945 16.3649 65.6863 16.3001 65.6838 16.234L65.6745 15.9834L65.6653 15.7328C65.6628 15.6685 65.666 15.605 65.674 15.5433L65.7067 15.2887L65.7231 15.1624L65.72 15.1452L65.6658 15.2501C65.6058 15.3661 65.5269 15.4655 65.4368 15.5468L65.2417 15.723L65.1987 15.7617L65.1802 15.8076L65.0853 16.0441C65.0483 16.1365 64.9985 16.2235 64.937 16.3026L64.7812 16.5031L64.7708 16.5165L64.7657 16.5516L64.727 16.8195C64.6964 17.0314 64.5978 17.2364 64.4332 17.3969L64.2456 17.5795L64.1217 17.7003L64.0328 17.8365L63.9516 17.9607L63.9027 18.104L63.8201 18.3455C63.799 18.4074 63.7724 18.4681 63.7402 18.5267L63.619 18.7472L63.4977 18.9678C63.466 19.0254 63.4299 19.0794 63.3901 19.1295L63.2306 19.3301L63.1497 19.4318L63.1033 19.5495L63.0305 19.7332L62.9847 19.9319L62.9264 20.1834C62.8901 20.3402 62.8178 20.4852 62.7159 20.608L62.5499 20.8077L62.4916 20.8779L62.3864 21.2054L62.3584 21.2924L62.3144 21.3725L62.3108 21.3792C62.2449 21.4994 62.1569 21.5997 62.0548 21.6781C61.9316 21.9735 61.6634 22.2008 61.3245 22.256C60.804 22.3406 60.3148 21.9876 60.2316 21.4675L60.2304 21.4601L60.1809 21.1501L60.2976 20.9242L60.2594 20.726C60.2537 20.6964 60.2488 20.6665 60.2449 20.6364L60.18 20.1368C60.1791 20.1303 60.1782 20.1237 60.1772 20.1173L60.1416 19.868L60.1057 19.6187C60.0875 19.4915 60.0937 19.3667 60.1189 19.2497L60.1743 18.993L60.1854 18.9421L60.1741 18.8991L60.1098 18.6523C60.0867 18.5639 60.0749 18.4729 60.0748 18.3811L60.0744 18.1294L60.0674 18.1182L59.9236 17.8899C59.8128 17.7139 59.7554 17.5014 59.7722 17.2794L59.7921 17.0189L59.8048 16.8503L59.7807 16.6928L59.7583 16.547L59.6992 16.4089L59.5988 16.1745C59.5732 16.1147 59.5525 16.0519 59.5372 15.9868L59.4798 15.7426L59.4225 15.4981C59.4074 15.4337 59.3981 15.369 59.3943 15.3047L59.3793 15.0494L59.3716 14.9188L59.3274 14.7992L59.2585 14.6122L59.1603 14.4325L59.1397 14.3947L59.0604 14.5497L58.9459 14.7733C58.9045 14.8542 58.8537 14.9284 58.7953 14.9949L58.627 15.1869L58.5139 15.3158L58.432 15.4619L58.3491 15.6095L58.2974 15.7738L58.2209 16.0164C58.1965 16.0939 58.1634 16.1691 58.1216 16.2406L57.8678 16.6754C57.8298 16.7406 57.7863 16.7997 57.7394 16.8529L57.6043 17.0056L57.5941 17.2278C57.5867 17.3863 57.542 17.5531 57.4485 17.708L57.3178 17.9248L57.2534 18.0315L57.2234 18.1535L57.1623 18.4001C57.1252 18.55 57.0562 18.6853 56.9645 18.7992L56.8003 19.0033L56.7418 19.076L56.7176 19.1558L56.6442 19.3975C56.6422 19.4037 56.6405 19.41 56.6387 19.4162L56.5687 19.6582L56.5062 19.8745L56.4628 20.0972L56.4145 20.3459C56.3771 20.5387 56.2875 20.7023 56.1751 20.8286L56.1592 20.8464L56.0139 21.1651L56.0106 21.1721C55.7918 21.652 55.2257 21.8649 54.7463 21.6475C54.4872 21.53 54.3067 21.3108 54.2299 21.0585L54.2241 21.0448L54.2135 21.0149L54.1874 20.9397C54.0403 20.518 54.2403 20.1838 54.2569 20.1538C54.3082 20.0617 54.3639 19.9975 54.3865 19.9721L54.5688 19.7673L54.5882 19.7456L54.5895 19.7387L54.6378 19.4899L54.6438 19.4612C54.6501 19.4325 54.6572 19.4039 54.6654 19.3756L54.8053 18.8915C54.8095 18.8771 54.8137 18.8628 54.8181 18.8484L54.9649 18.3648L54.9727 18.3404C55.013 18.2184 55.0744 18.1087 55.1503 18.0144L55.3145 17.8102L55.3565 17.7579L55.3707 17.7008L55.4317 17.4541L55.442 17.4156C55.4676 17.3263 55.505 17.2404 55.5534 17.1601L55.6842 16.9432L55.6981 16.9201L55.7003 16.8741L55.7128 16.6036C55.7231 16.3828 55.8064 16.163 55.9636 15.9851L56.1369 15.7887L56.2596 15.6499L56.3472 15.4996L56.4282 15.3611L56.4775 15.205L56.554 14.9623L56.5629 14.9352C56.5845 14.8724 56.6118 14.8111 56.6448 14.7524L56.8914 14.3127L56.906 14.2874C56.9409 14.2287 56.981 14.1739 57.0253 14.1234L57.1936 13.9314L57.2944 13.8164L57.3621 13.6845L57.4672 13.4791L57.5602 13.2577L57.6606 13.0185L57.6756 12.9848C57.7532 12.8176 57.8745 12.6748 58.0275 12.5714L58.2427 12.426L58.4183 12.3073L58.7105 12.0468C58.9071 11.8433 59.1831 11.7394 59.4596 11.7569C59.9073 11.6796 60.3395 11.9287 60.504 12.3379L60.6966 12.7381C60.7198 12.7864 60.7979 12.9496 60.8046 13.167L60.8124 13.4258L60.8139 13.4737L60.8365 13.5149L60.96 13.7413C60.9802 13.7782 60.9985 13.8168 61.015 13.8567L61.0307 13.8971L61.2056 14.3712C61.2375 14.4577 61.2577 14.5472 61.2664 14.6374L61.2694 14.6761L61.2844 14.9313L61.2956 15.1211L61.338 15.3014L61.3799 15.4805L61.454 15.6537L61.5545 15.8881C61.5899 15.9709 61.6152 16.0586 61.6291 16.1495L61.6672 16.3988L61.7054 16.648C61.7183 16.7327 61.7209 16.8162 61.7148 16.8969L61.6977 17.1211L61.8272 17.3266C61.9084 17.4557 61.9636 17.6084 61.9784 17.775L62.0359 17.6703L62.0968 17.4922L62.1793 17.2507L62.1906 17.2191C62.2183 17.1456 62.2541 17.0746 62.2978 17.0076L62.5739 16.5851L62.5915 16.5593C62.6328 16.4997 62.6789 16.4458 62.7282 16.3978L62.8822 16.2477L62.9156 16.0162L62.9206 15.9854C62.9476 15.8315 63.0114 15.6754 63.1194 15.5363L63.2751 15.3358L63.3586 15.2284L63.4095 15.1015L63.5044 14.865L63.516 14.8371C63.5761 14.6994 63.6641 14.5801 63.7701 14.4844L63.9652 14.3084L64.0436 14.2375L64.0869 14.1538L64.2027 13.9299C64.2094 13.9169 64.2162 13.9041 64.223 13.8913L64.3415 13.6685L64.4543 13.4566L64.5556 13.2361L64.6617 13.0045L64.6787 12.9694C64.7662 12.7965 64.8956 12.6635 65.0389 12.5721L65.1667 12.4905L65.2446 12.3587L65.2484 12.3521Z" fill="white"/>
<path d="M75.7183 9.35898C75.7003 9.359 75.6857 9.35941 75.677 9.35981C75.6595 9.36048 75.6453 9.36155 75.6382 9.36212C75.6229 9.36336 75.6092 9.36467 75.6008 9.36551L75.11 9.41678L75.0786 9.42064C74.9326 9.4405 74.8029 9.49038 74.6939 9.55509L74.6708 9.56915L74.4737 9.6934L74.2614 9.6729L74.232 9.67044C74.163 9.66559 74.0918 9.66716 74.0194 9.67618L73.7696 9.70739L73.5199 9.73844L73.4869 9.74305C73.41 9.7551 73.3354 9.77522 73.2642 9.80269L73.0261 9.89432L72.8558 9.95993L72.6798 9.99241L72.5044 10.0248L72.322 10.024L72.0666 10.0231C71.9699 10.0227 71.8723 10.0355 71.7768 10.0619L71.2913 10.1962C71.258 10.2055 71.2257 10.2159 71.1942 10.2275L71.1629 10.2395L70.9224 10.3349L70.8625 10.3588L70.7975 10.3551L70.5384 10.3402L70.4991 10.3387C70.1493 10.3325 69.9117 10.5123 69.827 10.5855L69.7995 10.6101L69.482 10.901C69.198 11.1186 69.0495 11.4872 69.1291 11.8582L69.091 12.0462C69.0853 12.0742 69.0756 12.1248 69.0696 12.1842L69.0674 12.2103L69.0482 12.4658L69.0291 12.7213C69.0164 12.8916 69.0465 13.0607 69.1154 13.2143L69.221 13.45L69.3065 13.6404L69.3629 13.8348L69.3997 13.9609L69.3993 14.0955L69.3987 14.3512C69.3985 14.4105 69.403 14.4703 69.4125 14.5302L69.4168 14.556L69.5065 15.0503C69.5191 15.1202 69.5382 15.1878 69.563 15.2525L69.6542 15.4907L69.7106 15.638L69.7306 15.7911L69.7525 15.9595L69.7389 16.1392L69.7194 16.4C69.7019 16.6336 69.7666 16.8565 69.8891 17.0376L70.0408 17.2617L70.0645 17.2966L70.0665 17.3197L70.0894 17.5716C70.0989 17.6759 70.1235 17.7777 70.1625 17.8739L70.2577 18.1097L70.2784 18.1611L70.2746 18.2246L70.2591 18.4861C70.2517 18.6118 70.2666 18.7426 70.3085 18.8709L70.4649 19.3501L70.4763 19.3846L70.6347 19.863C70.646 19.8972 70.6586 19.9308 70.6724 19.9636L70.769 20.1927L70.7665 20.2077L70.7219 20.4774C70.6785 20.741 70.742 21.0118 70.9023 21.2296L70.9568 21.3039L70.9532 21.3162L71.0073 21.5576L71.0089 21.5651C71.074 21.8555 71.2651 22.0852 71.5117 22.2093C71.6654 22.2988 71.8437 22.3455 72.0269 22.3386L72.416 22.3533L72.6332 22.3875L72.8896 22.4277C73.0863 22.4586 73.2871 22.4308 73.4678 22.3475L73.7036 22.239L73.9261 22.1364L74.1472 22.0514L74.2814 21.9998L74.4285 21.9836L74.682 21.9555C74.7524 21.9477 74.8227 21.9334 74.892 21.9119L75.1318 21.8373L75.3714 21.7628C75.4373 21.7423 75.5004 21.7162 75.56 21.685L75.786 21.5668L75.9164 21.4986L76.0574 21.4667L76.1983 21.4347L76.3507 21.4404L76.6104 21.4497C76.8415 21.4582 77.0594 21.3867 77.2346 21.2598L77.4521 21.1023L77.5303 21.0456L77.6047 21.0278L77.8476 20.9697C77.9738 20.9395 78.092 20.8862 78.1971 20.8136L78.4042 20.6701L78.467 20.6266L78.5514 20.6088L78.8067 20.5546C78.9406 20.5262 79.072 20.4707 79.1908 20.3863L79.3964 20.2401L79.6021 20.0939C79.6155 20.0843 79.6289 20.0745 79.6422 20.0647L79.845 19.915L79.938 19.8462L80.0289 19.8164L80.0403 19.8127L80.0516 19.8086L80.0588 19.8061C80.555 19.6291 80.8136 19.0832 80.6365 18.5868C80.4602 18.0926 79.9185 17.8337 79.4241 18.006L79.3179 18.0409L79.3166 18.0413L79.2017 18.0793C79.0837 18.1183 78.9928 18.1745 78.9457 18.2069L78.9139 18.2298L78.7112 18.3796L78.5084 18.5293L78.4964 18.538L78.2907 18.6843L78.2331 18.7251L78.155 18.7417L77.8997 18.7958C77.7778 18.8217 77.6578 18.87 77.5472 18.9424L77.5252 18.9571L77.3181 19.1005L77.2447 19.1514L77.1601 19.1717L76.9173 19.2297C76.7941 19.2591 76.6844 19.3094 76.5901 19.3713L76.5506 19.3985L76.3674 19.5311L76.1594 19.5236L76.1251 19.5229C76.0565 19.5226 75.9868 19.5288 75.9169 19.5421L75.882 19.5494L75.6357 19.6052L75.3894 19.661C75.3091 19.6791 75.2318 19.7062 75.1589 19.7414L75.1279 19.757L74.9018 19.8752L74.7376 19.961L74.5649 20.0147L74.3969 20.0668L74.2183 20.0866L73.9647 20.1146C73.8852 20.1234 73.806 20.141 73.7288 20.1679L73.6959 20.18L73.4616 20.2701L73.2274 20.3603C73.1978 20.3716 73.1689 20.3838 73.1411 20.3967L72.9164 20.5001L72.7101 20.4677L72.6671 20.4092L72.6935 20.2494C72.7224 20.0745 72.7074 19.8799 72.6279 19.6912L72.5293 19.4572L72.439 19.2427L72.3666 19.0242L72.2873 18.785L72.2786 18.7584L72.2005 18.5188L72.1734 18.4359L72.1792 18.3385L72.1948 18.077C72.2036 17.9291 72.1806 17.7766 72.1219 17.6313L72.0268 17.3955L71.9878 17.2992L72.0664 17.3048C72.2283 17.3165 72.3908 17.2896 72.5413 17.2252L72.7785 17.1238L72.9697 17.0421L73.1648 16.9892L73.2921 16.9546L73.4272 16.9574L73.6828 16.9625C73.7513 16.9639 73.8206 16.9591 73.89 16.9475L74.1377 16.9065L74.3854 16.8654C74.4568 16.8536 74.5262 16.835 74.5926 16.8103L74.8314 16.7216L74.9834 16.6651L75.1405 16.6448L75.3197 16.6217L75.5123 16.6317L75.7742 16.6453C76.0283 16.6585 76.2676 16.5746 76.4529 16.425L76.6636 16.255L76.7191 16.2102L76.7683 16.1985L77.0129 16.1407C77.1265 16.1138 77.2339 16.0684 77.3312 16.0071L77.5455 15.8718L77.5882 15.8449L77.643 15.8388L77.8993 15.8102C77.9089 15.8092 77.9381 15.8059 77.9723 15.7999L77.973 15.7998C77.9844 15.7978 78.0362 15.7886 78.0989 15.7686L78.1005 15.7681C78.1233 15.7608 78.2223 15.7294 78.3314 15.658C78.3836 15.6239 78.5167 15.531 78.6227 15.3578C78.7495 15.1507 78.8194 14.8492 78.7072 14.5373L78.6957 14.5071L78.6895 14.4914L78.6879 14.4878C78.6845 14.4786 78.6809 14.4695 78.6772 14.4606L78.6223 14.3221L78.5641 14.2603C78.3424 13.96 77.9549 13.8055 77.5698 13.8994L77.3651 13.9494L77.1749 13.9706L77.1465 13.9741C77.0276 13.9907 76.9112 14.0283 76.803 14.0865L75.9722 14.2892L76.0771 14.4008C75.9302 14.4366 75.8023 14.5021 75.6966 14.583L75.6755 14.5996L75.5248 14.7213L75.3491 14.7121L75.2991 14.7106C75.2488 14.7101 75.1972 14.713 75.1447 14.7197L74.8955 14.752L74.6464 14.7842C74.5735 14.7936 74.5025 14.8102 74.4343 14.8334L74.4053 14.8437L74.1665 14.9324L73.9984 14.995L73.825 15.0236L73.6484 15.053L73.4647 15.0493L73.2091 15.0442C73.1213 15.0424 73.0328 15.0515 72.9459 15.0717L72.9085 15.081L72.665 15.1472L72.4213 15.2132C72.3809 15.2242 72.3415 15.2372 72.3033 15.252L72.2655 15.2674L72.0282 15.3688L71.9886 15.3858L71.9443 15.3826L71.6858 15.3641L71.6516 15.362C71.6335 15.3614 71.6158 15.3612 71.5987 15.3615L71.5901 15.2958C71.5789 15.2096 71.5574 15.126 71.527 15.0466L71.4358 14.8084L71.3707 14.6384L71.3391 14.4633L71.3068 14.2859L71.3073 14.1009L71.3079 13.8453C71.3082 13.7446 71.2942 13.6433 71.2654 13.5444L71.1948 13.302L71.1243 13.0597L71.112 13.0199C71.099 12.9806 71.0841 12.9423 71.0676 12.9054L70.9621 12.6699L70.9485 12.6398L70.951 12.6092L70.9667 12.3974L70.9912 12.2767C71.1262 12.2789 71.2606 12.2545 71.387 12.2043L71.6274 12.1087L71.8351 12.0261L72.0436 11.9685L72.1753 11.932L72.3156 11.9325L72.571 11.9335C72.6402 11.9338 72.71 11.9277 72.7797 11.9149L73.2737 11.8236C73.343 11.8109 73.4101 11.7918 73.4743 11.7671L73.7123 11.6754L73.8566 11.6199L74.0064 11.6013L74.1675 11.5811L74.3391 11.5977L74.599 11.6227C74.8283 11.6448 75.0485 11.587 75.2298 11.4728L75.4589 11.3287L75.5144 11.2935L75.5545 11.2893L75.6875 11.2755L75.8058 11.2978L76.0015 11.252L76.009 11.2503C76.522 11.1305 76.8406 10.6173 76.7207 10.1041C76.6241 9.69102 76.2728 9.40381 75.8718 9.36995L75.8536 9.36799L75.818 9.36426C75.7698 9.35913 75.7317 9.35899 75.7183 9.35898Z" fill="white"/>
</svg>
