<svg width="30" height="30" viewBox="0 0 30 30" fill="none" xmlns="http://www.w3.org/2000/svg">
<path d="M15.4285 14.5714C18.675 14.5714 21.3061 11.9814 21.3061 8.78571C21.3061 5.59001 18.675 3 15.4285 3C12.1821 3 9.55099 5.59001 9.55099 8.78571C9.55099 11.9814 12.1821 14.5714 15.4285 14.5714ZM19.5428 16.0179H18.776C17.7566 16.4789 16.6224 16.7411 15.4285 16.7411C14.2347 16.7411 13.1051 16.4789 12.0811 16.0179H11.3143C7.90711 16.0179 5.14282 18.739 5.14282 22.0929V23.9732C5.14282 25.171 6.13007 26.1429 7.3469 26.1429H23.5102C24.727 26.1429 25.7143 25.171 25.7143 23.9732V22.0929C25.7143 18.739 22.95 16.0179 19.5428 16.0179Z" fill="#BCBCBC"/>
</svg>
