<svg width="14" height="14" viewBox="0 0 14 14" fill="none" xmlns="http://www.w3.org/2000/svg">
<path d="M4.14752 6.71988L3.73336 9.60154C3.69019 9.94571 3.90252 10.2665 4.39836 10.2665L7.28002 9.85238C7.40571 9.83567 7.52248 9.77831 7.61253 9.68905C7.65861 9.64296 12.18 5.12563 12.2209 5.07488C14.2287 2.85704 11.0688 -0.168705 8.92503 1.77904C8.87428 1.81988 4.35636 6.34188 4.31086 6.38738C4.22159 6.47742 4.16423 6.59419 4.14752 6.71988ZM10.5 2.34488C10.6528 2.34286 10.8045 2.37128 10.9462 2.42846C11.0879 2.48565 11.2167 2.57046 11.3253 2.67796C11.4339 2.78546 11.52 2.9135 11.5786 3.05461C11.6372 3.19572 11.6672 3.34708 11.6667 3.49988C11.6671 3.74879 11.585 3.99083 11.4334 4.18821L9.81169 2.56654C10.0106 2.41917 10.2525 2.34128 10.5 2.34488ZM5.27336 7.07571L8.97169 3.38321L10.6167 5.02821L6.92419 8.72655L4.99919 9.00071L5.27336 7.07571Z" fill="white"/>
<path d="M11.0834 7.65625V9.91667C11.0829 10.3807 10.8984 10.8255 10.5703 11.1536C10.2422 11.4817 9.79734 11.6662 9.33335 11.6667H4.08335C3.61937 11.6662 3.17452 11.4817 2.84643 11.1536C2.51834 10.8255 2.33382 10.3807 2.33335 9.91667V4.66667C2.33382 4.20268 2.51834 3.75783 2.84643 3.42974C3.17452 3.10165 3.61937 2.91713 4.08335 2.91667H6.3986C6.55331 2.91667 6.70169 2.85521 6.81108 2.74581C6.92048 2.63642 6.98194 2.48804 6.98194 2.33333C6.98194 2.17862 6.92048 2.03025 6.81108 1.92085C6.70169 1.81146 6.55331 1.75 6.3986 1.75H4.08335C3.31009 1.75093 2.56876 2.05851 2.02198 2.60529C1.4752 3.15208 1.16761 3.8934 1.16669 4.66667V9.91667C1.16761 10.6899 1.4752 11.4313 2.02198 11.978C2.56876 12.5248 3.31009 12.8324 4.08335 12.8333H9.33335C10.1066 12.8324 10.8479 12.5248 11.3947 11.978C11.9415 11.4313 12.2491 10.6899 12.25 9.91667V7.65625C12.25 7.50154 12.1886 7.35317 12.0792 7.24377C11.9698 7.13437 11.8214 7.07292 11.6667 7.07292C11.512 7.07292 11.3636 7.13437 11.2542 7.24377C11.1448 7.35317 11.0834 7.50154 11.0834 7.65625Z" fill="white"/>
</svg>
