<svg width="20" height="21" viewBox="0 0 20 21" fill="none" xmlns="http://www.w3.org/2000/svg">
<g filter="url(#filter0_d_44_458)">
<path d="M6.98084 6.71988L6.56667 9.60154C6.5235 9.94571 6.73584 10.2665 7.23167 10.2665L10.1133 9.85238C10.239 9.83567 10.3558 9.77831 10.4458 9.68905C10.4919 9.64296 15.0133 5.12563 15.0542 5.07488C17.062 2.85704 13.9021 -0.168705 11.7583 1.77904C11.7076 1.81988 7.18967 6.34188 7.14417 6.38738C7.0549 6.47742 6.99754 6.59419 6.98084 6.71988ZM13.3333 2.34488C13.4861 2.34286 13.6378 2.37128 13.7795 2.42846C13.9212 2.48565 14.0501 2.57046 14.1586 2.67796C14.2672 2.78546 14.3533 2.9135 14.4119 3.05461C14.4705 3.19572 14.5005 3.34708 14.5 3.49988C14.5004 3.74879 14.4183 3.99083 14.2667 4.18821L12.645 2.56654C12.8439 2.41917 13.0858 2.34128 13.3333 2.34488ZM8.10667 7.07571L11.805 3.38321L13.45 5.02821L9.7575 8.72655L7.8325 9.00071L8.10667 7.07571Z" fill="white"/>
<path d="M13.9167 7.65625V9.91667C13.9162 10.3807 13.7317 10.8255 13.4036 11.1536C13.0755 11.4817 12.6307 11.6662 12.1667 11.6667H6.91667C6.45268 11.6662 6.00783 11.4817 5.67974 11.1536C5.35165 10.8255 5.16713 10.3807 5.16667 9.91667V4.66667C5.16713 4.20268 5.35165 3.75783 5.67974 3.42974C6.00783 3.10165 6.45268 2.91713 6.91667 2.91667H9.23192C9.38663 2.91667 9.535 2.85521 9.6444 2.74581C9.75379 2.63642 9.81525 2.48804 9.81525 2.33333C9.81525 2.17862 9.75379 2.03025 9.6444 1.92085C9.535 1.81146 9.38663 1.75 9.23192 1.75H6.91667C6.1434 1.75093 5.40208 2.05851 4.85529 2.60529C4.30851 3.15208 4.00093 3.8934 4 4.66667V9.91667C4.00093 10.6899 4.30851 11.4313 4.85529 11.978C5.40208 12.5248 6.1434 12.8324 6.91667 12.8333H12.1667C12.9399 12.8324 13.6813 12.5248 14.228 11.978C14.7748 11.4313 15.0824 10.6899 15.0833 9.91667V7.65625C15.0833 7.50154 15.0219 7.35317 14.9125 7.24377C14.8031 7.13437 14.6547 7.07292 14.5 7.07292C14.3453 7.07292 14.1969 7.13437 14.0875 7.24377C13.9781 7.35317 13.9167 7.50154 13.9167 7.65625Z" fill="white"/>
</g>
<defs>
<filter id="filter0_d_44_458" x="-1.16666" y="0" width="22" height="22" filterUnits="userSpaceOnUse" color-interpolation-filters="sRGB">
<feFlood flood-opacity="0" result="BackgroundImageFix"/>
<feColorMatrix in="SourceAlpha" type="matrix" values="0 0 0 0 0 0 0 0 0 0 0 0 0 0 0 0 0 0 127 0" result="hardAlpha"/>
<feOffset dy="4"/>
<feGaussianBlur stdDeviation="2"/>
<feComposite in2="hardAlpha" operator="out"/>
<feColorMatrix type="matrix" values="0 0 0 0 0 0 0 0 0 0 0 0 0 0 0 0 0 0 0.25 0"/>
<feBlend mode="normal" in2="BackgroundImageFix" result="effect1_dropShadow_44_458"/>
<feBlend mode="normal" in="SourceGraphic" in2="effect1_dropShadow_44_458" result="shape"/>
</filter>
</defs>
</svg>
